<svg width="381" height="128" viewBox="0 0 381 128" fill="none" xmlns="http://www.w3.org/2000/svg">
<mask id="mask0_902_745" style="mask-type:luminance" maskUnits="userSpaceOnUse" x="0" y="0" width="381" height="128">
<path d="M380.026 106.253L371.78 95.5949L380.049 84.9134V84.7846L371.78 74.1031L380.026 63.445L371.78 52.7869L379.815 42.3864L371.78 31.9977L380.026 21.3396L371.78 10.6815L380.049 0H0L8.26881 10.6815L0.0234205 21.3396L8.26881 31.9977L0.23424 42.3864L8.26881 52.7869L0.0234205 63.445L8.26881 74.1031L0 84.7846V84.9134L8.26881 95.5949L0.0234205 106.253L8.26881 116.923L0 127.604H380.049L371.78 116.923L380.026 106.253Z" fill="white"/>
</mask>
<g mask="url(#mask0_902_745)">
<path d="M380.026 106.253L371.78 95.5949L380.049 84.9134V84.7846L371.78 74.1031L380.026 63.445L371.78 52.7869L379.815 42.3864L371.78 31.9977L380.026 21.3396L371.78 10.6815L380.049 0H0L8.26881 10.6815L0.0234205 21.3396L8.26881 31.9977L0.23424 42.3864L8.26881 52.7869L0.0234205 63.445L8.26881 74.1031L0 84.7846V84.9134L8.26881 95.5949L0.0234205 106.253L8.26881 116.923L0 127.604H380.049L371.78 116.923L380.026 106.253Z" fill="#F6F1EA"/>
<g opacity="0.37">
<path d="M184.373 6.27758C184.373 7.85872 184.28 9.21735 184.081 10.3534C183.893 11.4895 183.53 12.5202 183.015 13.4455C182.359 14.5815 181.516 15.4599 180.473 16.069C179.431 16.6897 178.283 16.9942 177.006 16.9942C175.542 16.9942 174.231 16.5843 173.071 15.7527C171.912 14.9212 171.033 13.7851 170.448 12.3211C170.155 11.5246 169.932 10.6345 169.792 9.67413C169.651 8.70201 169.581 7.65962 169.581 6.53525C169.581 5.08294 169.663 3.77118 169.815 2.61167C169.967 1.45217 170.213 0.444902 170.541 -0.386664C171.103 -1.7687 171.935 -2.82279 173.012 -3.56066C174.09 -4.28681 175.39 -4.6499 176.889 -4.6499C177.885 -4.6499 178.775 -4.48593 179.583 -4.1697C180.391 -3.84176 181.106 -3.37326 181.715 -2.75251C182.324 -2.13177 182.839 -1.35876 183.261 -0.44521C183.987 1.14765 184.362 3.38468 184.362 6.2893L184.373 6.27758ZM180.415 5.98477C180.415 4.22794 180.309 2.78734 180.098 1.66297C179.888 0.5386 179.536 -0.304676 179.033 -0.878574C178.529 -1.45247 177.838 -1.73356 176.959 -1.73356C175.695 -1.73356 174.804 -1.08939 174.313 0.18724C173.821 1.46387 173.575 3.44323 173.575 6.1019C173.575 7.90558 173.68 9.39303 173.891 10.5525C174.102 11.712 174.453 12.5787 174.957 13.1761C175.46 13.7734 176.14 14.0662 176.995 14.0662C177.85 14.0662 178.576 13.7617 179.068 13.1409C179.571 12.5202 179.923 11.6418 180.122 10.5057C180.321 9.35789 180.426 7.85873 180.426 6.0082L180.415 5.98477Z" fill="#363636"/>
<path d="M200.466 7.16772C199.834 7.9173 199.119 8.47948 198.334 8.86598C197.55 9.24077 196.683 9.43987 195.734 9.43987C194.786 9.43987 193.989 9.26419 193.204 8.91282C192.42 8.56146 191.74 8.06955 191.166 7.43709C190.593 6.80463 190.159 6.06676 189.843 5.22349C189.538 4.38021 189.386 3.50178 189.386 2.57652C189.386 1.58098 189.562 0.644021 189.902 -0.246106C190.253 -1.13623 190.745 -1.90925 191.389 -2.56513C192.033 -3.22102 192.806 -3.72464 193.696 -4.09943C194.586 -4.46251 195.57 -4.6499 196.648 -4.6499C197.889 -4.6499 198.99 -4.42737 199.962 -3.97059C200.934 -3.51382 201.754 -2.85793 202.41 -2.00293C203.078 -1.13623 203.581 -0.058712 203.944 1.25305C204.296 2.56482 204.483 4.04056 204.483 5.70369C204.483 7.55422 204.296 9.18221 203.921 10.5877C203.546 11.9931 202.996 13.1761 202.281 14.1365C201.567 15.0969 200.7 15.8113 199.705 16.2681C198.709 16.7366 197.573 16.9708 196.296 16.9708C195.02 16.9708 193.954 16.7366 193.04 16.2564C192.115 15.7762 191.412 15.1906 190.932 14.4761C190.452 13.7734 190.206 13.0824 190.206 12.4382C190.206 12.0283 190.358 11.6769 190.651 11.3607C190.944 11.0444 191.33 10.8805 191.787 10.8805C192.209 10.8805 192.595 10.9976 192.923 11.2318C193.251 11.4661 193.521 11.8174 193.685 12.2976C193.895 12.8715 194.247 13.34 194.739 13.6914C195.231 14.0428 195.781 14.2184 196.402 14.2184C196.952 14.2184 197.468 14.0779 197.96 13.7968C198.451 13.5157 198.873 13.1292 199.213 12.6139C199.904 11.5832 200.314 9.76781 200.454 7.15599L200.466 7.16772ZM200.138 2.75221C200.138 2.09633 200.044 1.499 199.869 0.93682C199.693 0.386346 199.435 -0.0938487 199.119 -0.503776C198.791 -0.90199 198.416 -1.22993 197.96 -1.45246C197.515 -1.6867 197.023 -1.80383 196.496 -1.80383C195.582 -1.80383 194.809 -1.40562 194.177 -0.63261C193.544 0.152107 193.228 1.18278 193.228 2.48284C193.228 3.78289 193.544 4.77843 194.177 5.53972C194.809 6.30101 195.617 6.67579 196.589 6.67579C197.187 6.67579 197.76 6.52354 198.299 6.20731C198.838 5.89108 199.283 5.44601 199.623 4.84869C199.962 4.25137 200.138 3.54865 200.138 2.74051V2.75221Z" fill="#363636"/>
<path d="M234.865 6.27758C234.865 7.85872 234.771 9.21735 234.572 10.3534C234.385 11.4895 234.021 12.5202 233.506 13.4455C232.85 14.5815 232.007 15.4599 230.965 16.069C229.922 16.6897 228.774 16.9942 227.498 16.9942C226.034 16.9942 224.722 16.5843 223.563 15.7527C222.403 14.9212 221.525 13.7851 220.939 12.3211C220.646 11.5246 220.424 10.6345 220.283 9.67413C220.143 8.70201 220.072 7.65962 220.072 6.53525C220.072 5.08294 220.154 3.77118 220.307 2.61167C220.459 1.45217 220.705 0.444902 221.033 -0.386664C221.595 -1.7687 222.426 -2.82279 223.504 -3.56066C224.581 -4.28681 225.882 -4.6499 227.381 -4.6499C228.376 -4.6499 229.266 -4.48593 230.074 -4.1697C230.883 -3.84176 231.597 -3.37326 232.206 -2.75251C232.815 -2.13177 233.33 -1.35876 233.752 -0.44521C234.478 1.14765 234.853 3.38468 234.853 6.2893L234.865 6.27758ZM230.906 5.98477C230.906 4.22794 230.801 2.78734 230.59 1.66297C230.379 0.5386 230.028 -0.304676 229.524 -0.878574C229.02 -1.45247 228.329 -1.73356 227.451 -1.73356C226.186 -1.73356 225.296 -1.08939 224.804 0.18724C224.312 1.46387 224.066 3.44323 224.066 6.1019C224.066 7.90558 224.172 9.39303 224.382 10.5525C224.593 11.712 224.945 12.5787 225.448 13.1761C225.952 13.7734 226.631 14.0662 227.486 14.0662C228.341 14.0662 229.067 13.7617 229.559 13.1409C230.063 12.5202 230.414 11.6418 230.613 10.5057C230.812 9.35789 230.918 7.85873 230.918 6.0082L230.906 5.98477Z" fill="#363636"/>
<path d="M245.523 13.2463H253.054C253.803 13.2463 254.377 13.3986 254.775 13.7031C255.174 14.0076 255.361 14.4293 255.361 14.9563C255.361 15.4248 255.209 15.823 254.893 16.151C254.576 16.4789 254.108 16.6429 253.475 16.6429H242.852C242.126 16.6429 241.564 16.4438 241.166 16.0455C240.756 15.6473 240.557 15.1788 240.557 14.6401C240.557 14.2887 240.686 13.832 240.943 13.2581C241.201 12.6842 241.482 12.2391 241.798 11.9111C243.075 10.5877 244.234 9.45159 245.265 8.5029C246.296 7.55422 247.034 6.93346 247.479 6.62895C248.263 6.06676 248.919 5.50457 249.446 4.94239C249.973 4.3802 250.372 3.80631 250.641 3.20899C250.91 2.61167 251.051 2.03777 251.051 1.47559C251.051 0.854842 250.91 0.304365 250.606 -0.175836C250.313 -0.656035 249.915 -1.04254 249.411 -1.31192C248.908 -1.5813 248.357 -1.72185 247.76 -1.72185C246.495 -1.72185 245.511 -1.17138 244.785 -0.0587244C244.691 0.0818224 244.527 0.480048 244.305 1.12422C244.082 1.76839 243.824 2.26031 243.543 2.61167C243.262 2.96304 242.841 3.12699 242.29 3.12699C241.81 3.12699 241.412 2.96304 241.096 2.64681C240.779 2.33058 240.615 1.89723 240.615 1.34675C240.615 0.679158 240.768 -0.0118661 241.06 -0.72631C241.353 -1.45247 241.798 -2.09665 242.396 -2.69397C242.981 -3.27958 243.743 -3.75977 244.644 -4.11113C245.558 -4.47421 246.624 -4.6499 247.842 -4.6499C249.317 -4.6499 250.571 -4.41564 251.613 -3.95887C252.281 -3.65435 252.878 -3.23273 253.393 -2.69397C253.909 -2.15521 254.295 -1.53445 254.588 -0.82001C254.869 -0.117278 255.01 0.620596 255.01 1.38189C255.01 2.57653 254.717 3.66576 254.12 4.63788C253.522 5.60999 252.925 6.38298 252.304 6.93346C251.683 7.48393 250.653 8.35063 249.212 9.53357C247.76 10.7165 246.776 11.6418 246.237 12.2859C246.003 12.5436 245.769 12.8598 245.534 13.2229L245.523 13.2463Z" fill="#363636"/>
<path d="M285.368 6.27758C285.368 7.85872 285.274 9.21735 285.075 10.3534C284.888 11.4895 284.524 12.5202 284.009 13.4455C283.353 14.5815 282.51 15.4599 281.468 16.069C280.425 16.6897 279.277 16.9942 278.001 16.9942C276.537 16.9942 275.225 16.5843 274.065 15.7527C272.906 14.9212 272.028 13.7851 271.442 12.3211C271.149 11.5246 270.927 10.6345 270.786 9.67413C270.645 8.70201 270.575 7.65962 270.575 6.53525C270.575 5.08294 270.657 3.77118 270.809 2.61167C270.962 1.45217 271.208 0.444902 271.536 -0.386664C272.098 -1.7687 272.929 -2.82279 274.007 -3.56066C275.084 -4.28681 276.384 -4.6499 277.884 -4.6499C278.879 -4.6499 279.769 -4.48593 280.577 -4.1697C281.386 -3.84176 282.1 -3.37326 282.709 -2.75251C283.318 -2.13177 283.833 -1.35876 284.255 -0.44521C284.981 1.14765 285.356 3.38468 285.356 6.2893L285.368 6.27758ZM281.409 5.98477C281.409 4.22794 281.304 2.78734 281.093 1.66297C280.882 0.5386 280.531 -0.304676 280.027 -0.878574C279.523 -1.45247 278.832 -1.73356 277.954 -1.73356C276.689 -1.73356 275.799 -1.08939 275.307 0.18724C274.815 1.46387 274.569 3.44323 274.569 6.1019C274.569 7.90558 274.674 9.39303 274.885 10.5525C275.096 11.712 275.447 12.5787 275.951 13.1761C276.455 13.7734 277.134 14.0662 277.989 14.0662C278.844 14.0662 279.57 13.7617 280.062 13.1409C280.566 12.5202 280.917 11.6418 281.116 10.5057C281.315 9.35789 281.421 7.85873 281.421 6.0082L281.409 5.98477Z" fill="#363636"/>
<path d="M303.112 -0.937442H296.26L295.44 3.73573C296.811 3.00957 298.064 2.63478 299.223 2.63478C300.149 2.63478 301.015 2.81047 301.812 3.15012C302.62 3.50149 303.323 3.96997 303.932 4.59072C304.541 5.19975 305.009 5.92591 305.361 6.75748C305.712 7.58905 305.876 8.49089 305.876 9.45129C305.876 10.845 305.56 12.1217 304.939 13.2578C304.318 14.4055 303.416 15.3074 302.233 15.9867C301.05 16.666 299.692 16.9939 298.158 16.9939C296.436 16.9939 295.042 16.6777 293.965 16.0452C292.887 15.4128 292.137 14.6866 291.681 13.8551C291.236 13.0352 291.013 12.3091 291.013 11.7C291.013 11.3252 291.165 10.9739 291.482 10.6342C291.798 10.2946 292.184 10.1306 292.653 10.1306C293.461 10.1306 294.058 10.5991 294.456 11.5361C294.843 12.391 295.358 13.0586 296.014 13.5388C296.67 14.019 297.396 14.2533 298.204 14.2533C298.942 14.2533 299.598 14.0659 300.149 13.6794C300.711 13.2929 301.132 12.7658 301.437 12.0865C301.741 11.4189 301.894 10.6459 301.894 9.79093C301.894 8.86567 301.73 8.08097 301.402 7.42508C301.074 6.7692 300.64 6.27729 300.09 5.96106C299.54 5.64483 298.931 5.48085 298.263 5.48085C297.431 5.48085 296.846 5.58626 296.483 5.78537C296.131 5.98447 295.616 6.33584 294.948 6.85118C294.281 7.3548 293.73 7.61246 293.297 7.61246C292.828 7.61246 292.407 7.43678 292.044 7.09713C291.681 6.75747 291.493 6.37098 291.493 5.93763C291.493 5.89078 291.54 5.56284 291.657 4.95381L292.864 -1.9564C293.004 -2.78796 293.25 -3.38528 293.613 -3.76007C293.976 -4.13486 294.574 -4.32227 295.405 -4.32227H303.03C304.529 -4.32227 305.279 -3.74837 305.279 -2.60057C305.279 -2.09695 305.091 -1.69872 304.728 -1.38249C304.365 -1.07798 303.826 -0.925718 303.112 -0.925718V-0.937442Z" fill="#363636"/>
</g>
<g opacity="0.84">
<path d="M147.55 99.6587H153.875C154.566 99.6587 155.222 99.729 155.866 99.8578C156.51 100.033 157.154 100.385 157.81 100.924C158.361 101.322 158.806 101.907 159.145 102.657C159.508 103.383 159.684 104.238 159.684 105.222C159.684 106.557 159.227 107.775 158.314 108.864C157.377 110.012 156.018 110.61 154.215 110.645H150.186V117.684H147.539V99.6587H147.55ZM150.197 108.08H154.121C155.105 108.068 155.843 107.752 156.334 107.131C156.803 106.534 157.037 105.878 157.037 105.14C157.037 104.531 156.943 104.027 156.744 103.617C156.545 103.243 156.264 102.95 155.901 102.739C155.362 102.388 154.73 102.212 154.004 102.224H150.174V108.068L150.197 108.08Z" fill="#363636"/>
<path d="M167.484 99.6592H174.301C175.753 99.6592 176.936 100.057 177.861 100.842C178.962 101.744 179.548 103.021 179.595 104.684C179.56 107.132 178.435 108.795 176.222 109.673L180.262 117.673H177.124L173.516 109.966H170.131V117.673H167.484V99.6475V99.6592ZM170.131 107.553H174.137C175.132 107.541 175.87 107.237 176.374 106.663C176.866 106.124 177.1 105.468 177.1 104.684C177.088 103.747 176.796 103.056 176.222 102.634C175.777 102.259 175.121 102.072 174.277 102.072H170.12V107.553H170.131Z" fill="#363636"/>
<path d="M187.864 99.6587H190.51V117.684H187.864V99.6587Z" fill="#363636"/>
<path d="M211.089 112.648C210.702 114.323 209.976 115.599 208.899 116.501C207.786 117.391 206.474 117.836 204.963 117.836C203.593 117.801 202.445 117.462 201.532 116.794C200.595 116.162 199.915 115.424 199.494 114.592C199.365 114.323 199.248 114.065 199.142 113.819C199.049 113.561 198.967 113.245 198.908 112.859C198.791 112.133 198.732 110.739 198.732 108.677C198.732 106.616 198.791 105.187 198.908 104.473C199.037 103.758 199.236 103.196 199.494 102.751C199.915 101.92 200.595 101.182 201.532 100.526C202.445 99.8699 203.593 99.5303 204.963 99.5068C206.65 99.5185 208.02 100.034 209.086 101.053C210.152 102.072 210.819 103.337 211.1 104.836H208.29C208.079 104.11 207.681 103.489 207.118 102.974C206.533 102.482 205.807 102.236 204.963 102.212C204.343 102.224 203.804 102.353 203.359 102.599C202.902 102.845 202.539 103.161 202.258 103.524C201.918 103.911 201.684 104.414 201.578 105.023C201.45 105.667 201.391 106.874 201.391 108.654C201.391 110.434 201.45 111.629 201.578 112.261C201.696 112.894 201.918 113.398 202.258 113.784C202.539 114.159 202.902 114.452 203.359 114.686C203.804 114.955 204.343 115.096 204.963 115.096C206.451 115.096 207.563 114.276 208.301 112.636H211.1L211.089 112.648Z" fill="#363636"/>
<path d="M218.327 99.6592H229.477V102.224H220.974V107.378H228.235V109.802H220.974V115.108H229.477V117.673H218.327V99.6475V99.6592Z" fill="#363636"/>
</g>
<g opacity="0.37">
<path d="M98.9562 13.3165L95.5362 0.632196L92.0694 13.3165C91.8 14.2769 91.5892 14.9679 91.4252 15.3896C91.2613 15.8112 90.9919 16.186 90.5937 16.5139C90.1955 16.8419 89.6801 17.0175 89.0242 17.0175C88.4972 17.0175 88.0638 16.9238 87.7125 16.7247C87.3728 16.5256 87.0917 16.2446 86.8809 15.8932C86.6701 15.5301 86.4944 15.1085 86.3656 14.6048C86.2367 14.1129 86.1079 13.6444 86.0025 13.2228L82.4771 -1.01923C82.2663 -1.85079 82.1609 -2.47154 82.1609 -2.90489C82.1609 -3.45537 82.3483 -3.91213 82.7348 -4.28692C83.1213 -4.66171 83.5898 -4.84912 84.1637 -4.84912C84.9484 -4.84912 85.4637 -4.60317 85.7331 -4.09954C86.0025 -3.59592 86.2367 -2.86976 86.4359 -1.92107L89.2116 10.4353L92.3154 -1.12463C92.5496 -2.01476 92.7487 -2.68237 92.9361 -3.15086C93.1235 -3.60763 93.4163 -4.00583 93.8262 -4.34549C94.2362 -4.68514 94.7984 -4.84912 95.5128 -4.84912C96.2272 -4.84912 96.7894 -4.67344 97.1993 -4.32208C97.5976 -3.97071 97.8787 -3.58419 98.0309 -3.17427C98.1832 -2.76434 98.394 -2.07332 98.6517 -1.12463L101.779 10.4353L104.555 -1.92107C104.683 -2.56524 104.812 -3.06886 104.941 -3.43194C105.058 -3.79502 105.269 -4.12295 105.562 -4.41576C105.855 -4.70856 106.276 -4.84912 106.838 -4.84912C107.401 -4.84912 107.869 -4.66172 108.256 -4.29865C108.642 -3.92386 108.841 -3.46708 108.841 -2.90489C108.841 -2.50668 108.736 -1.87422 108.525 -1.01923L105 13.2228C104.754 14.1832 104.555 14.8859 104.402 15.3427C104.238 15.7878 103.969 16.186 103.594 16.5139C103.219 16.8536 102.681 17.0175 101.99 17.0175C101.334 17.0175 100.807 16.8536 100.42 16.5256C100.022 16.1977 99.7526 15.8346 99.6003 15.4247C99.4481 15.0148 99.2256 14.312 98.9562 13.3282V13.3165Z" fill="#363636"/>
<path d="M120.12 7.60113H118.621V14.3942C118.621 15.2843 118.422 15.9519 118.024 16.3736C117.625 16.7952 117.11 17.006 116.478 17.006C115.798 17.006 115.259 16.7835 114.885 16.3384C114.51 15.8934 114.323 15.2492 114.323 14.3942V-1.88576C114.323 -2.81102 114.533 -3.47861 114.943 -3.88853C115.353 -4.29846 116.021 -4.50928 116.946 -4.50928H123.915C124.875 -4.50928 125.695 -4.46244 126.386 -4.39217C127.065 -4.31018 127.686 -4.14621 128.237 -3.90026C128.904 -3.61916 129.49 -3.22094 129.993 -2.70561C130.509 -2.19027 130.895 -1.58123 131.153 -0.890213C131.422 -0.199194 131.551 0.526957 131.551 1.29996C131.551 2.88111 131.106 4.13433 130.216 5.08301C129.326 6.0317 127.979 6.69929 126.164 7.08579C126.925 7.49572 127.651 8.08132 128.342 8.87775C129.033 9.66247 129.654 10.5058 130.193 11.3959C130.731 12.286 131.165 13.0942 131.457 13.8086C131.762 14.523 131.914 15.0149 131.914 15.2843C131.914 15.5537 131.821 15.8348 131.645 16.1159C131.469 16.3853 131.223 16.6078 130.919 16.7601C130.614 16.924 130.251 16.9943 129.853 16.9943C129.373 16.9943 128.963 16.8772 128.635 16.6546C128.307 16.4321 128.026 16.1393 127.792 15.7997C127.557 15.4483 127.241 14.9447 126.831 14.2654L125.109 11.4076C124.489 10.3535 123.938 9.55706 123.458 9.00659C122.978 8.45611 122.474 8.08133 121.982 7.88223C121.479 7.68312 120.846 7.5777 120.097 7.5777L120.12 7.60113ZM122.568 -1.28842H118.609V4.53254H122.451C123.481 4.53254 124.348 4.43883 125.051 4.26315C125.754 4.08746 126.292 3.78295 126.655 3.3496C127.03 2.91624 127.206 2.33064 127.206 1.58106C127.206 0.99545 127.054 0.480105 126.761 0.0350418C126.468 -0.410021 126.046 -0.749676 125.519 -0.972207C125.016 -1.18303 124.032 -1.28842 122.556 -1.28842H122.568Z" fill="#363636"/>
</g>
<path d="M49.8472 43.7803C49.8472 41.3442 50.2688 39.1891 51.1238 37.3152C51.9788 35.4412 53.1032 33.8835 54.5203 32.642C55.8789 31.4474 57.425 30.5455 59.1584 29.9248C60.8918 29.304 62.6252 28.9878 64.3937 28.9878C66.1623 28.9878 67.8957 29.304 69.6291 29.9248C71.3625 30.5455 72.9319 31.4591 74.3491 32.642C75.7077 33.8835 76.8204 35.4529 77.6636 37.3152C78.5186 39.1891 78.9403 41.3442 78.9403 43.7803V75.7546C78.9403 78.3079 78.5186 80.4863 77.6636 82.3017C76.8086 84.1171 75.7077 85.6163 74.3491 86.8109C72.9319 88.0641 71.3625 88.9894 69.6291 89.6218C67.8957 90.2426 66.1505 90.5588 64.3937 90.5588C62.6369 90.5588 60.8918 90.2426 59.1584 89.6218C57.425 89.0011 55.8789 88.0641 54.5203 86.8109C53.1032 85.6163 51.9671 84.1171 51.1238 82.3017C50.2688 80.4863 49.8472 78.3079 49.8472 75.7546V43.7803ZM58.5259 75.7546C58.5259 77.8511 59.1115 79.3971 60.271 80.3926C61.4305 81.3882 62.8126 81.8801 64.3937 81.8801C65.9749 81.8801 67.3569 81.3882 68.5164 80.3926C69.6759 79.3971 70.2615 77.8511 70.2615 75.7546V43.7803C70.2615 41.6838 69.6759 40.1378 68.5164 39.1423C67.3569 38.1467 65.9749 37.6548 64.3937 37.6548C62.8126 37.6548 61.4305 38.1467 60.271 39.1423C59.1115 40.1378 58.5259 41.6838 58.5259 43.7803V75.7546Z" fill="#363636"/>
<path d="M122.299 29.4917V76.4342C122.299 78.4135 121.947 80.2523 121.233 81.9155C120.518 83.5903 119.523 85.0778 118.211 86.3778C116.911 87.6779 115.4 88.7086 113.702 89.4347C112.004 90.1726 110.188 90.5357 108.256 90.5357C106.323 90.5357 104.531 90.1609 102.857 89.4347C101.182 88.6968 99.6942 87.6779 98.3942 86.3778C97.0941 85.0778 96.0634 83.5903 95.3373 81.9155C94.5994 80.2406 94.2363 78.4135 94.2363 76.4342V29.4917H102.915V75.5792C102.915 77.7342 103.43 79.3154 104.449 80.3461C105.468 81.365 106.745 81.8803 108.279 81.8803C109.814 81.8803 111.09 81.365 112.109 80.3461C113.128 79.3271 113.643 77.7342 113.643 75.5792V29.4917H122.322H122.299Z" fill="#363636"/>
<path d="M138.11 90.0316V29.4795H152.06C162.261 29.4795 167.367 35.4059 167.367 47.2469C167.367 50.8191 166.817 53.8526 165.704 56.3473C164.603 58.842 162.659 60.8565 159.883 62.3908L169.241 90.0316H160.059L151.978 64.1827H146.789V90.0316H138.11ZM146.789 37.6429V56.523H151.72C153.254 56.523 154.472 56.3121 155.374 55.8905C156.276 55.4689 156.99 54.8598 157.494 54.0634C157.951 53.267 158.255 52.2949 158.431 51.1353C158.595 49.9758 158.689 48.6289 158.689 47.0946C158.689 45.5603 158.607 44.2134 158.431 43.0539C158.255 41.8944 157.916 40.8872 157.412 40.0322C156.335 38.451 154.297 37.6546 151.287 37.6546H146.777L146.789 37.6429Z" fill="#363636"/>
<path d="M205.467 90.0316V29.4795H214.146V81.3528H231.328V90.0316H205.479H205.467Z" fill="#363636"/>
<path d="M244.07 43.7803C244.07 41.3442 244.492 39.1891 245.347 37.3152C246.202 35.4412 247.326 33.8835 248.744 32.642C250.102 31.4474 251.648 30.5455 253.382 29.9248C255.115 29.304 256.848 28.9878 258.617 28.9878C260.386 28.9878 262.119 29.304 263.852 29.9248C265.586 30.5455 267.155 31.4591 268.572 32.642C269.931 33.8835 271.044 35.4529 271.887 37.3152C272.742 39.1891 273.164 41.3442 273.164 43.7803V75.7546C273.164 78.3079 272.742 80.4863 271.887 82.3017C271.032 84.1171 269.931 85.6163 268.572 86.8109C267.155 88.0641 265.586 88.9894 263.852 89.6218C262.119 90.2426 260.374 90.5588 258.617 90.5588C256.86 90.5588 255.115 90.2426 253.382 89.6218C251.648 89.0011 250.102 88.0641 248.744 86.8109C247.326 85.6163 246.19 84.1171 245.347 82.3017C244.492 80.4863 244.07 78.3079 244.07 75.7546V43.7803ZM252.749 75.7546C252.749 77.8511 253.335 79.3971 254.494 80.3926C255.654 81.3882 257.036 81.8801 258.617 81.8801C260.198 81.8801 261.58 81.3882 262.74 80.3926C263.899 79.3971 264.485 77.8511 264.485 75.7546V43.7803C264.485 41.6838 263.899 40.1378 262.74 39.1423C261.58 38.1467 260.198 37.6548 258.617 37.6548C257.036 37.6548 255.654 38.1467 254.494 39.1423C253.335 40.1378 252.749 41.6838 252.749 43.7803V75.7546Z" fill="#363636"/>
<path d="M332.427 29.4917L323.409 90.0437H315.246L308.617 50.7611H308.441L301.894 90.0437H293.73L284.712 29.4917H293.894L298.228 67.9311H298.403L305.208 29.4917H311.837L318.9 68.8681H319.064L323.233 29.4917H332.416H332.427Z" fill="#363636"/>
<path opacity="0.59" d="M345.463 59.2402H309.003V152.914H345.463V59.2402Z" fill="#FFEB20"/>
<path style="mix-blend-mode:hard-light" opacity="0.18" d="M380.026 106.253L371.78 95.5949L380.049 84.9134V84.7846L371.78 74.1031L380.026 63.445L371.78 52.7869L379.815 42.3864L371.78 31.9977L380.026 21.3396L371.78 10.6815L380.049 0H0L8.26881 10.6815L0.0234205 21.3396L8.26881 31.9977L0.23424 42.3864L8.26881 52.7869L0.0234205 63.445L8.26881 74.1031L0 84.7846V84.9134L8.26881 95.5949L0.0234205 106.253L8.26881 116.923L0 127.604H380.049L371.78 116.923L380.026 106.253Z" fill="url(#paint0_linear_902_745)"/>
</g>
<defs>
<linearGradient id="paint0_linear_902_745" x1="56.5933" y1="0.234245" x2="353.24" y2="141.565" gradientUnits="userSpaceOnUse">
<stop stop-color="#D3D4D5"/>
<stop offset="0.03" stop-color="#8B9193"/>
<stop offset="0.06" stop-color="#575F63"/>
<stop offset="0.07" stop-color="#374145"/>
<stop offset="0.08" stop-color="#2B363A"/>
<stop offset="0.12" stop-color="#343E42"/>
<stop offset="0.17" stop-color="#4D5559"/>
<stop offset="0.24" stop-color="#757B7E"/>
<stop offset="0.31" stop-color="#ADB0B1"/>
<stop offset="0.35" stop-color="#CDCDCE"/>
<stop offset="0.37" stop-color="#C6C7C8"/>
<stop offset="0.39" stop-color="#B4B6B8"/>
<stop offset="0.41" stop-color="#979C9E"/>
<stop offset="0.44" stop-color="#6F767A"/>
<stop offset="0.46" stop-color="#485357"/>
<stop offset="0.48" stop-color="#4C565A"/>
<stop offset="0.51" stop-color="#596266"/>
<stop offset="0.54" stop-color="#707578"/>
<stop offset="0.56" stop-color="#8F9092"/>
<stop offset="0.57" stop-color="#98989A"/>
<stop offset="0.61" stop-color="#A5A5A6"/>
<stop offset="0.7" stop-color="#C7C7C8"/>
<stop offset="0.8" stop-color="white"/>
<stop offset="0.83" stop-color="#D1D1D2"/>
<stop offset="0.9" stop-color="#4F4F53"/>
<stop offset="0.94" stop-color="#1B1B20"/>
<stop offset="0.95" stop-color="#313136"/>
<stop offset="0.96" stop-color="#4D4D51"/>
<stop offset="0.97" stop-color="#747476"/>
<stop offset="0.99" stop-color="#A5A5A7"/>
<stop offset="1" stop-color="#E9E9E9"/>
</linearGradient>
</defs>
</svg>
