<svg xmlns="http://www.w3.org/2000/svg" xmlns:xlink="http://www.w3.org/1999/xlink" width="500" zoomAndPan="magnify" viewBox="0 0 375 374.999991" height="500" preserveAspectRatio="xMidYMid meet" version="1.0"><defs><g/><clipPath id="e851f0a37b"><path d="M 37.5 27.4375 L 347.25 27.4375 L 347.25 337.1875 L 37.5 337.1875 Z M 37.5 27.4375 " clip-rule="nonzero"/></clipPath><clipPath id="47cd5d7c15"><path d="M 119.757812 136 L 154 136 L 154 178 L 119.757812 178 Z M 119.757812 136 " clip-rule="nonzero"/></clipPath><clipPath id="380edea17e"><path d="M 119.757812 162 L 194 162 L 194 255.683594 L 119.757812 255.683594 Z M 119.757812 162 " clip-rule="nonzero"/></clipPath><clipPath id="e4c9d9e23d"><path d="M 191 253 L 194 253 L 194 255.683594 L 191 255.683594 Z M 191 253 " clip-rule="nonzero"/></clipPath><clipPath id="3e20196f9c"><path d="M 143 175 L 194 175 L 194 255.683594 L 143 255.683594 Z M 143 175 " clip-rule="nonzero"/></clipPath><clipPath id="82ba3eea13"><path d="M 191 253 L 194 253 L 194 255.683594 L 191 255.683594 Z M 191 253 " clip-rule="nonzero"/></clipPath><clipPath id="1607ce246c"><path d="M 231 136 L 265.257812 136 L 265.257812 178 L 231 178 Z M 231 136 " clip-rule="nonzero"/></clipPath><clipPath id="6bb1d3d5da"><path d="M 191 162 L 265.257812 162 L 265.257812 255.683594 L 191 255.683594 Z M 191 162 " clip-rule="nonzero"/></clipPath><clipPath id="9fb7c0065d"><path d="M 191 185 L 220 185 L 220 255.683594 L 191 255.683594 Z M 191 185 " clip-rule="nonzero"/></clipPath><clipPath id="714099f861"><path d="M 191 253 L 194 253 L 194 255.683594 L 191 255.683594 Z M 191 253 " clip-rule="nonzero"/></clipPath><clipPath id="28f0f21ce1"><path d="M 191 175 L 243 175 L 243 255.683594 L 191 255.683594 Z M 191 175 " clip-rule="nonzero"/></clipPath><clipPath id="8d05367c7f"><path d="M 191 253 L 194 253 L 194 255.683594 L 191 255.683594 Z M 191 253 " clip-rule="nonzero"/></clipPath><clipPath id="2a2dd8c959"><path d="M 166 185 L 194 185 L 194 255.683594 L 166 255.683594 Z M 166 185 " clip-rule="nonzero"/></clipPath><clipPath id="3e3743a71d"><path d="M 191 253 L 194 253 L 194 255.683594 L 191 255.683594 Z M 191 253 " clip-rule="nonzero"/></clipPath><clipPath id="b012bacab9"><path d="M 304.015625 195.660156 L 327.261719 195.660156 L 327.261719 214.480469 L 304.015625 214.480469 Z M 304.015625 195.660156 " clip-rule="nonzero"/></clipPath><clipPath id="346f5f302e"><path d="M 57.667969 195.660156 L 80.917969 195.660156 L 80.917969 214.480469 L 57.667969 214.480469 Z M 57.667969 195.660156 " clip-rule="nonzero"/></clipPath></defs><rect x="-37.5" width="450" fill="#ffffff" y="-37.499999" height="449.999989" fill-opacity="1"/><rect x="-37.5" width="450" fill="#ffffff" y="-37.499999" height="449.999989" fill-opacity="1"/><rect x="-37.5" width="450" fill="#f5f3e7" y="-37.499999" height="449.999989" fill-opacity="1"/><g clip-path="url(#e851f0a37b)"><path fill="#4f3c2b" d="M 347.269531 182.320312 C 347.269531 96.777344 277.925781 27.433594 192.382812 27.433594 C 106.84375 27.433594 37.5 96.777344 37.5 182.320312 C 37.5 267.863281 106.84375 337.207031 192.382812 337.207031 C 277.925781 337.207031 347.269531 267.863281 347.269531 182.320312 " fill-opacity="1" fill-rule="nonzero"/></g><path fill="#f5f3e7" d="M 338.839844 182.320312 C 338.839844 101.433594 273.269531 35.867188 192.382812 35.867188 C 111.5 35.867188 45.929688 101.433594 45.929688 182.320312 C 45.929688 263.207031 111.5 328.777344 192.382812 328.777344 C 273.269531 328.777344 338.839844 263.207031 338.839844 182.320312 " fill-opacity="1" fill-rule="nonzero"/><path fill="#4f3c2b" d="M 294.933594 182.320312 C 294.933594 125.6875 249.019531 79.773438 192.382812 79.773438 C 135.75 79.773438 89.835938 125.6875 89.835938 182.320312 C 89.835938 238.957031 135.75 284.867188 192.382812 284.867188 C 249.019531 284.867188 294.933594 238.957031 294.933594 182.320312 " fill-opacity="1" fill-rule="nonzero"/><path fill="#f5f3e7" d="M 288.265625 182.320312 C 288.265625 129.367188 245.339844 86.441406 192.382812 86.441406 C 139.433594 86.441406 96.503906 129.367188 96.503906 182.320312 C 96.503906 235.273438 139.433594 278.203125 192.382812 278.203125 C 245.339844 278.203125 288.265625 235.273438 288.265625 182.320312 " fill-opacity="1" fill-rule="nonzero"/><path fill="#4f3c2b" d="M 243.574219 215.003906 L 248.707031 216.394531 L 243.574219 217.785156 L 242.183594 222.921875 L 240.792969 217.785156 L 235.65625 216.394531 L 240.792969 215.003906 L 242.183594 209.867188 L 243.574219 215.003906 " fill-opacity="1" fill-rule="nonzero"/><path fill="#4f3c2b" d="M 239.089844 219.492188 C 239.042969 219.929688 238.894531 220.277344 238.722656 220.589844 C 238.550781 220.910156 238.339844 221.183594 238.097656 221.429688 C 237.851562 221.675781 237.578125 221.886719 237.265625 222.0625 C 236.945312 222.226562 236.601562 222.375 236.160156 222.421875 C 236.210938 221.976562 236.351562 221.632812 236.523438 221.316406 C 236.699219 221.007812 236.910156 220.726562 237.15625 220.484375 C 237.402344 220.242188 237.675781 220.03125 237.988281 219.855469 C 238.308594 219.683594 238.648438 219.542969 239.089844 219.492188 " fill-opacity="1" fill-rule="nonzero"/><path fill="#4f3c2b" d="M 248.207031 210.375 C 248.160156 210.816406 248.011719 211.15625 247.84375 211.476562 C 247.671875 211.789062 247.460938 212.0625 247.214844 212.308594 C 246.96875 212.554688 246.695312 212.765625 246.382812 212.941406 C 246.0625 213.113281 245.722656 213.253906 245.277344 213.300781 C 245.328125 212.863281 245.472656 212.519531 245.640625 212.199219 C 245.820312 211.886719 246.023438 211.605469 246.269531 211.363281 C 246.515625 211.121094 246.792969 210.910156 247.105469 210.734375 C 247.425781 210.5625 247.769531 210.421875 248.207031 210.375 " fill-opacity="1" fill-rule="nonzero"/><path fill="#4f3c2b" d="M 245.277344 219.492188 C 245.714844 219.542969 246.0625 219.683594 246.378906 219.855469 C 246.691406 220.03125 246.96875 220.242188 247.214844 220.484375 C 247.460938 220.726562 247.671875 221.007812 247.84375 221.316406 C 248.019531 221.632812 248.160156 221.976562 248.207031 222.421875 C 247.761719 222.375 247.421875 222.226562 247.101562 222.0625 C 246.792969 221.886719 246.515625 221.675781 246.269531 221.429688 C 246.023438 221.183594 245.820312 220.910156 245.640625 220.589844 C 245.472656 220.277344 245.328125 219.929688 245.277344 219.492188 " fill-opacity="1" fill-rule="nonzero"/><path fill="#4f3c2b" d="M 236.160156 210.375 C 236.601562 210.421875 236.945312 210.5625 237.265625 210.734375 C 237.578125 210.910156 237.851562 211.121094 238.097656 211.363281 C 238.339844 211.605469 238.550781 211.886719 238.730469 212.199219 C 238.898438 212.519531 239.042969 212.855469 239.089844 213.300781 C 238.648438 213.253906 238.308594 213.113281 237.988281 212.941406 C 237.675781 212.765625 237.394531 212.554688 237.15625 212.308594 C 236.910156 212.0625 236.699219 211.789062 236.523438 211.476562 C 236.351562 211.15625 236.210938 210.816406 236.160156 210.375 " fill-opacity="1" fill-rule="nonzero"/><path fill="#4f3c2b" d="M 231.792969 233.347656 L 235.992188 234.488281 L 231.792969 235.625 L 230.652344 239.824219 L 229.511719 235.625 L 225.320312 234.488281 L 229.511719 233.347656 L 230.652344 229.148438 L 231.792969 233.347656 " fill-opacity="1" fill-rule="nonzero"/><path fill="#4f3c2b" d="M 228.121094 237.015625 C 228.082031 237.375 227.96875 237.660156 227.828125 237.914062 C 227.683594 238.175781 227.507812 238.398438 227.3125 238.597656 C 227.113281 238.800781 226.890625 238.976562 226.628906 239.113281 C 226.375 239.253906 226.089844 239.375 225.730469 239.410156 C 225.769531 239.050781 225.882812 238.769531 226.027344 238.507812 C 226.167969 238.25 226.339844 238.03125 226.542969 237.828125 C 226.742188 237.628906 226.964844 237.453125 227.226562 237.316406 C 227.480469 237.175781 227.765625 237.054688 228.121094 237.015625 " fill-opacity="1" fill-rule="nonzero"/><path fill="#4f3c2b" d="M 235.578125 229.5625 C 235.539062 229.917969 235.421875 230.203125 235.28125 230.460938 C 235.144531 230.722656 234.96875 230.945312 234.769531 231.144531 C 234.570312 231.34375 234.347656 231.519531 234.085938 231.65625 C 233.828125 231.804688 233.542969 231.914062 233.1875 231.953125 C 233.222656 231.59375 233.335938 231.3125 233.480469 231.058594 C 233.621094 230.796875 233.800781 230.574219 233.992188 230.375 C 234.199219 230.175781 234.421875 229.996094 234.683594 229.859375 C 234.933594 229.71875 235.21875 229.605469 235.578125 229.5625 " fill-opacity="1" fill-rule="nonzero"/><path fill="#4f3c2b" d="M 233.1875 237.015625 C 233.542969 237.054688 233.828125 237.175781 234.085938 237.316406 C 234.339844 237.453125 234.570312 237.628906 234.769531 237.828125 C 234.96875 238.03125 235.144531 238.25 235.28125 238.507812 C 235.429688 238.769531 235.539062 239.050781 235.578125 239.410156 C 235.21875 239.375 234.933594 239.253906 234.683594 239.113281 C 234.421875 238.976562 234.199219 238.800781 233.992188 238.597656 C 233.800781 238.398438 233.621094 238.175781 233.484375 237.914062 C 233.34375 237.660156 233.222656 237.375 233.1875 237.015625 " fill-opacity="1" fill-rule="nonzero"/><path fill="#4f3c2b" d="M 225.730469 229.5625 C 226.089844 229.597656 226.375 229.71875 226.628906 229.859375 C 226.890625 229.996094 227.113281 230.175781 227.3125 230.375 C 227.507812 230.574219 227.691406 230.796875 227.828125 231.058594 C 227.96875 231.3125 228.082031 231.59375 228.121094 231.953125 C 227.765625 231.914062 227.480469 231.804688 227.222656 231.65625 C 226.964844 231.519531 226.738281 231.34375 226.542969 231.144531 C 226.34375 230.945312 226.167969 230.722656 226.027344 230.460938 C 225.882812 230.203125 225.769531 229.917969 225.730469 229.5625 " fill-opacity="1" fill-rule="nonzero"/><path fill="#4f3c2b" d="M 243.355469 230.761719 C 243.355469 231.433594 242.808594 231.980469 242.132812 231.980469 C 241.457031 231.980469 240.90625 231.433594 240.90625 230.761719 C 240.90625 230.082031 241.457031 229.535156 242.132812 229.535156 C 242.808594 229.535156 243.355469 230.082031 243.355469 230.761719 " fill-opacity="1" fill-rule="nonzero"/><path fill="#4f3c2b" d="M 218.269531 239.824219 C 218.269531 240.496094 217.722656 241.046875 217.042969 241.046875 C 216.371094 241.046875 215.824219 240.496094 215.824219 239.824219 C 215.824219 239.152344 216.371094 238.597656 217.042969 238.597656 C 217.722656 238.597656 218.269531 239.152344 218.269531 239.824219 " fill-opacity="1" fill-rule="nonzero"/><path fill="#4f3c2b" d="M 253.769531 203.511719 C 253.769531 204.183594 253.226562 204.730469 252.550781 204.730469 C 251.871094 204.730469 251.324219 204.183594 251.324219 203.511719 C 251.324219 202.835938 251.871094 202.285156 252.550781 202.285156 C 253.226562 202.285156 253.769531 202.835938 253.769531 203.511719 " fill-opacity="1" fill-rule="nonzero"/><path fill="#4f3c2b" d="M 142.71875 223.121094 L 147.855469 224.511719 L 142.71875 225.902344 L 141.328125 231.039062 L 139.9375 225.902344 L 134.804688 224.511719 L 139.9375 223.121094 L 141.328125 217.984375 L 142.71875 223.121094 " fill-opacity="1" fill-rule="nonzero"/><path fill="#4f3c2b" d="M 138.234375 227.609375 C 138.191406 228.046875 138.042969 228.390625 137.875 228.707031 C 137.699219 229.023438 137.488281 229.300781 137.242188 229.546875 C 137 229.792969 136.726562 229.996094 136.410156 230.175781 C 136.09375 230.34375 135.75 230.488281 135.3125 230.539062 C 135.355469 230.09375 135.5 229.753906 135.671875 229.433594 C 135.839844 229.121094 136.058594 228.847656 136.304688 228.601562 C 136.546875 228.359375 136.820312 228.144531 137.136719 227.972656 C 137.453125 227.800781 137.796875 227.660156 138.234375 227.609375 " fill-opacity="1" fill-rule="nonzero"/><path fill="#4f3c2b" d="M 147.355469 218.488281 C 147.304688 218.933594 147.160156 219.269531 146.988281 219.59375 C 146.816406 219.902344 146.609375 220.179688 146.355469 220.425781 C 146.117188 220.671875 145.839844 220.882812 145.53125 221.058594 C 145.210938 221.222656 144.871094 221.371094 144.425781 221.417969 C 144.46875 220.980469 144.617188 220.636719 144.785156 220.316406 C 144.960938 220.003906 145.171875 219.726562 145.417969 219.484375 C 145.667969 219.242188 145.941406 219.023438 146.253906 218.851562 C 146.574219 218.683594 146.914062 218.539062 147.355469 218.488281 " fill-opacity="1" fill-rule="nonzero"/><path fill="#4f3c2b" d="M 144.425781 227.609375 C 144.863281 227.660156 145.207031 227.800781 145.523438 227.972656 C 145.839844 228.144531 146.117188 228.359375 146.355469 228.601562 C 146.609375 228.847656 146.816406 229.121094 146.996094 229.433594 C 147.160156 229.753906 147.308594 230.09375 147.355469 230.539062 C 146.914062 230.488281 146.566406 230.34375 146.25 230.175781 C 145.941406 229.996094 145.660156 229.792969 145.417969 229.546875 C 145.175781 229.300781 144.960938 229.023438 144.789062 228.707031 C 144.617188 228.390625 144.476562 228.046875 144.425781 227.609375 " fill-opacity="1" fill-rule="nonzero"/><path fill="#4f3c2b" d="M 135.3125 218.488281 C 135.75 218.539062 136.09375 218.679688 136.410156 218.851562 C 136.71875 219.023438 137 219.242188 137.242188 219.484375 C 137.488281 219.726562 137.699219 220.003906 137.875 220.316406 C 138.042969 220.636719 138.191406 220.980469 138.234375 221.417969 C 137.796875 221.371094 137.449219 221.222656 137.136719 221.058594 C 136.820312 220.882812 136.542969 220.671875 136.304688 220.425781 C 136.058594 220.179688 135.847656 219.902344 135.671875 219.59375 C 135.5 219.269531 135.355469 218.933594 135.3125 218.488281 " fill-opacity="1" fill-rule="nonzero"/><path fill="#4f3c2b" d="M 146.636719 208.675781 C 146.636719 209.351562 146.09375 209.898438 145.417969 209.898438 C 144.738281 209.898438 144.191406 209.351562 144.191406 208.675781 C 144.191406 208 144.738281 207.453125 145.417969 207.453125 C 146.09375 207.453125 146.636719 208 146.636719 208.675781 " fill-opacity="1" fill-rule="nonzero"/><path fill="#4f3c2b" d="M 154.601562 217.730469 C 154.601562 218.40625 154.054688 218.957031 153.378906 218.957031 C 152.707031 218.957031 152.160156 218.40625 152.160156 217.730469 C 152.160156 217.058594 152.707031 216.507812 153.378906 216.507812 C 154.054688 216.507812 154.601562 217.058594 154.601562 217.730469 " fill-opacity="1" fill-rule="nonzero"/><path fill="#4f3c2b" d="M 141.328125 237.585938 C 141.328125 238.261719 140.78125 238.808594 140.109375 238.808594 C 139.433594 238.808594 138.886719 238.261719 138.886719 237.585938 C 138.886719 236.910156 139.433594 236.363281 140.109375 236.363281 C 140.78125 236.363281 141.328125 236.910156 141.328125 237.585938 " fill-opacity="1" fill-rule="nonzero"/><g clip-path="url(#47cd5d7c15)"><path stroke-linecap="round" transform="matrix(0.0569918, 0, 0, -0.0570055, 71.372606, 308.944228)" fill="none" stroke-linejoin="round" d="M 1417.804297 2819.608107 L 1274.828607 2324.727501 L 870.096368 2544.895237 L 868.108691 2544.895237 L 1094.087047 3005.582347 L 1095.869102 3005.582347 Z M 1417.804297 2819.608107 " stroke="#1a1819" stroke-width="35" stroke-opacity="1" stroke-miterlimit="10"/></g><path stroke-linecap="round" transform="matrix(0.0569918, 0, 0, -0.0570055, 71.372606, 308.944228)" fill="none" stroke-linejoin="round" d="M 2126.102849 2665.017876 L 2125.897227 2083.180265 L 1678.601276 2147.113193 L 1758.382534 2702.020857 Z M 2126.102849 2665.017876 " stroke="#1a1819" stroke-width="35" stroke-opacity="1" stroke-miterlimit="10"/><g clip-path="url(#380edea17e)"><path stroke-linecap="round" transform="matrix(0.0569918, 0, 0, -0.0570055, 71.372606, 308.944228)" fill="none" stroke-linejoin="round" d="M 2125.897227 956.987692 L 868.108691 2544.895237 L 870.096368 2544.895237 L 1274.828607 2324.727501 Z M 2125.897227 956.987692 " stroke="#1a1819" stroke-width="35" stroke-opacity="1" stroke-miterlimit="10"/></g><g clip-path="url(#e4c9d9e23d)"><path stroke-linecap="round" transform="matrix(0.0569918, 0, 0, -0.0570055, 71.372606, 308.944228)" fill="none" stroke-linejoin="round" d="M 2125.897227 956.987692 L 2125.897227 956.508024 L 2126.102849 956.508024 L 2126.102849 956.233928 " stroke="#1a1819" stroke-width="35" stroke-opacity="1" stroke-miterlimit="10"/><path stroke-linecap="round" transform="matrix(0.0569918, 0, 0, -0.0570055, 71.372606, 308.944228)" fill="none" stroke-linejoin="round" d="M 2125.897227 956.987692 L 2125.897227 956.508024 L 2126.102849 956.508024 " stroke="#1a1819" stroke-width="35" stroke-opacity="1" stroke-miterlimit="10"/></g><g clip-path="url(#3e20196f9c)"><path stroke-linecap="round" transform="matrix(0.0569918, 0, 0, -0.0570055, 71.372606, 308.944228)" fill="none" stroke-linejoin="round" d="M 2125.897227 956.987692 L 1274.828607 2324.727501 L 1678.601276 2147.113193 Z M 2125.897227 956.987692 " stroke="#1a1819" stroke-width="35" stroke-opacity="1" stroke-miterlimit="10"/></g><g clip-path="url(#82ba3eea13)"><path stroke-linecap="round" transform="matrix(0.0569918, 0, 0, -0.0570055, 71.372606, 308.944228)" fill="none" stroke-linejoin="round" d="M 2125.897227 956.987692 L 2125.897227 956.508024 L 2126.102849 956.508024 L 2126.102849 956.233928 " stroke="#1a1819" stroke-width="35" stroke-opacity="1" stroke-miterlimit="10"/><path stroke-linecap="round" transform="matrix(0.0569918, 0, 0, -0.0570055, 71.372606, 308.944228)" fill="none" stroke-linejoin="round" d="M 2126.102849 956.233928 L 2126.102849 956.78212 " stroke="#1a1819" stroke-width="35" stroke-opacity="1" stroke-miterlimit="10"/></g><path stroke-linecap="round" transform="matrix(0.0569918, 0, 0, -0.0570055, 71.372606, 308.944228)" fill="none" stroke-linejoin="round" d="M 1758.382534 2702.020857 L 1678.601276 2147.113193 L 1274.828607 2324.727501 L 1417.804297 2819.608107 Z M 1758.382534 2702.020857 " stroke="#1a1819" stroke-width="35" stroke-opacity="1" stroke-miterlimit="10"/><path stroke-linecap="round" transform="matrix(0.0569918, 0, 0, -0.0570055, 71.372606, 308.944228)" fill="none" stroke-linejoin="round" d="M 3157.913029 3005.582347 L 3156.130973 3005.582347 L 2834.195779 2819.608107 L 2493.617541 2702.020857 L 2126.377011 2665.017876 L 2126.102849 2665.017876 L 1758.382534 2702.020857 L 1417.804297 2819.608107 L 1095.869102 3005.582347 L 1094.087047 3005.582347 L 1431.512416 3189.089723 L 1804.373276 3295.78165 L 2447.626799 3295.78165 L 2820.487659 3189.089723 Z M 3157.913029 3005.582347 " stroke="#1a1819" stroke-width="35" stroke-opacity="1" stroke-miterlimit="10"/><g clip-path="url(#1607ce246c)"><path stroke-linecap="round" transform="matrix(0.0569918, 0, 0, -0.0570055, 71.372606, 308.944228)" fill="none" stroke-linejoin="round" d="M 3383.891384 2544.895237 L 3381.903707 2544.895237 L 2977.102928 2324.727501 L 2834.195779 2819.608107 L 3156.130973 3005.582347 L 3157.913029 3005.582347 Z M 3383.891384 2544.895237 " stroke="#1a1819" stroke-width="35" stroke-opacity="1" stroke-miterlimit="10"/></g><g clip-path="url(#6bb1d3d5da)"><path stroke-linecap="round" transform="matrix(0.0569918, 0, 0, -0.0570055, 71.372606, 308.944228)" fill="none" stroke-linejoin="round" d="M 3383.891384 2544.895237 L 2126.102849 956.987692 L 2977.102928 2324.727501 L 3381.903707 2544.895237 Z M 3383.891384 2544.895237 " stroke="#1a1819" stroke-width="35" stroke-opacity="1" stroke-miterlimit="10"/></g><g clip-path="url(#9fb7c0065d)"><path stroke-linecap="round" transform="matrix(0.0569918, 0, 0, -0.0570055, 71.372606, 308.944228)" fill="none" stroke-linejoin="round" d="M 2573.398799 2147.113193 L 2126.102849 956.987692 L 2126.102849 2083.180265 Z M 2573.398799 2147.113193 " stroke="#1a1819" stroke-width="35" stroke-opacity="1" stroke-miterlimit="10"/></g><g clip-path="url(#714099f861)"><path stroke-linecap="round" transform="matrix(0.0569918, 0, 0, -0.0570055, 71.372606, 308.944228)" fill="none" stroke-linejoin="round" d="M 2126.102849 956.987692 L 2126.102849 956.508024 L 2125.897227 956.508024 L 2125.897227 956.233928 " stroke="#1a1819" stroke-width="35" stroke-opacity="1" stroke-miterlimit="10"/></g><path stroke-linecap="round" transform="matrix(0.0569918, 0, 0, -0.0570055, 71.372606, 308.944228)" fill="none" stroke-linejoin="round" d="M 2573.398799 2147.113193 L 2126.102849 2083.180265 L 2126.377011 2665.017876 L 2493.617541 2702.020857 Z M 2573.398799 2147.113193 " stroke="#1a1819" stroke-width="35" stroke-opacity="1" stroke-miterlimit="10"/><path stroke-linecap="round" transform="matrix(0.0569918, 0, 0, -0.0570055, 71.372606, 308.944228)" fill="none" stroke-linejoin="round" d="M 2977.102928 2324.727501 L 2573.398799 2147.113193 L 2493.617541 2702.020857 L 2834.195779 2819.608107 Z M 2977.102928 2324.727501 " stroke="#1a1819" stroke-width="35" stroke-opacity="1" stroke-miterlimit="10"/><g clip-path="url(#28f0f21ce1)"><path stroke-linecap="round" transform="matrix(0.0569918, 0, 0, -0.0570055, 71.372606, 308.944228)" fill="none" stroke-linejoin="round" d="M 2977.102928 2324.727501 L 2126.102849 956.987692 L 2573.398799 2147.113193 Z M 2977.102928 2324.727501 " stroke="#1a1819" stroke-width="35" stroke-opacity="1" stroke-miterlimit="10"/></g><g clip-path="url(#8d05367c7f)"><path stroke-linecap="round" transform="matrix(0.0569918, 0, 0, -0.0570055, 71.372606, 308.944228)" fill="none" stroke-linejoin="round" d="M 2125.897227 956.233928 L 2125.897227 956.508024 L 2126.102849 956.508024 L 2126.102849 956.78212 L 2126.102849 956.508024 L 2125.897227 956.508024 " stroke="#1a1819" stroke-width="35" stroke-opacity="1" stroke-miterlimit="10"/></g><g clip-path="url(#2a2dd8c959)"><path stroke-linecap="round" transform="matrix(0.0569918, 0, 0, -0.0570055, 71.372606, 308.944228)" fill="none" stroke-linejoin="round" d="M 2125.897227 2083.180265 L 2125.897227 956.987692 L 1678.601276 2147.113193 Z M 2125.897227 2083.180265 " stroke="#1a1819" stroke-width="35" stroke-opacity="1" stroke-miterlimit="10"/></g><g clip-path="url(#3e3743a71d)"><path stroke-linecap="round" transform="matrix(0.0569918, 0, 0, -0.0570055, 71.372606, 308.944228)" fill="none" stroke-linejoin="round" d="M 2125.897227 956.233928 L 2125.897227 956.987692 " stroke="#1a1819" stroke-width="35" stroke-opacity="1" stroke-miterlimit="10"/></g><g fill="#4f3c2b" fill-opacity="1"><g transform="translate(113.354118, 96.094739)"><g><path d="M -5.46875 -12.046875 C -1.117188 -5.726562 5.222656 -3.148438 11.515625 -7.476562 C 17.046875 -11.285156 17.488281 -16.828125 12.375 -24.324219 L 13.074219 -24.804688 L 14.5625 -21.800781 L 20.0625 -13.804688 L 22.554688 -15.519531 L 15.839844 -25.277344 C 15.066406 -26.402344 14.113281 -26.550781 12.867188 -25.695312 L 2.289062 -18.414062 L 3.667969 -16.410156 L 10.992188 -21.449219 C 14.621094 -16.375 14.308594 -12.53125 10.082031 -9.625 C 5.066406 -6.175781 0.640625 -8.503906 -2.976562 -13.761719 C -6.574219 -18.992188 -6.46875 -24.4375 -1.453125 -27.886719 C 2.769531 -30.796875 6.152344 -29.71875 9.066406 -26.527344 L 11.558594 -28.242188 C 7.699219 -32.484375 2.460938 -33.71875 -2.917969 -30.015625 C -9.117188 -25.75 -9.796875 -18.339844 -5.46875 -12.046875 Z M -5.46875 -12.046875 "/></g></g></g><g fill="#4f3c2b" fill-opacity="1"><g transform="translate(157.721036, 71.630285)"><g><path d="M 18.414062 -3.882812 L 17.878906 -6.410156 L 5.0625 -3.707031 L 3.175781 -12.660156 L 14.183594 -14.984375 L 13.652344 -17.511719 L 2.640625 -15.1875 L 0.757812 -24.105469 L 13.578125 -26.808594 L 13.042969 -29.335938 L -2.734375 -26.007812 L 2.636719 -0.554688 Z M 18.414062 -3.882812 "/></g></g></g><g fill="#4f3c2b" fill-opacity="1"><g transform="translate(198.910947, 65.998777)"><g><path d="M 5.605469 1.132812 L 10.15625 -21.398438 L 9.996094 -23.011719 L 10.933594 -22.824219 L 13.34375 2.695312 L 19.203125 3.878906 L 31.332031 -18.703125 L 32.273438 -18.511719 L 31.460938 -17.097656 L 26.910156 5.4375 L 29.875 6.035156 L 35.023438 -19.464844 L 29.09375 -20.660156 L 16.964844 1.921875 L 16.132812 1.753906 L 13.757812 -23.757812 L 7.789062 -24.964844 L 2.640625 0.535156 Z M 5.605469 1.132812 "/></g></g></g><g fill="#4f3c2b" fill-opacity="1"><g transform="translate(250.135238, 81.672734)"><g><path d="M 22.796875 8.300781 C 25.964844 3.894531 21.988281 -0.6875 18.78125 -4.949219 C 16.082031 -8.527344 14.804688 -10.667969 16.398438 -12.886719 C 18.078125 -15.222656 20.722656 -14.414062 23.628906 -12.324219 C 26.863281 -10 28.410156 -6.523438 25.824219 -2.929688 L 28.28125 -1.164062 C 30.757812 -4.609375 31.367188 -9.941406 25.136719 -14.421875 C 19.921875 -18.167969 16.222656 -17.828125 13.898438 -14.59375 C 11.207031 -10.847656 13.414062 -7.535156 16.671875 -3.28125 C 19.320312 0.117188 22.558594 3.449219 20.253906 6.652344 C 18.425781 9.199219 15.734375 8.582031 12.136719 6 C 7.703125 2.8125 5.835938 -0.214844 9.429688 -5.21875 L 6.972656 -6.984375 C 3.421875 -2.039062 3.261719 2.796875 10.628906 8.097656 C 16.863281 12.574219 20.535156 11.445312 22.796875 8.300781 Z M 22.796875 8.300781 "/></g></g></g><g fill="#4f3c2b" fill-opacity="1"><g transform="translate(129.693705, 303.621)"><g><path d="M 15.277344 -13.847656 L 10.453125 -16.28125 L 1.777344 0.898438 L 3.777344 1.90625 L 6.765625 -4.015625 L 9.59375 -2.585938 C 13.933594 -0.398438 17.265625 -0.152344 19.539062 -4.660156 C 21.804688 -9.144531 19.617188 -11.65625 15.277344 -13.847656 Z M 7.628906 -5.722656 L 11.589844 -13.566406 L 14.441406 -12.128906 C 17.367188 -10.652344 19.242188 -9.03125 17.542969 -5.667969 C 15.820312 -2.257812 13.40625 -2.804688 10.480469 -4.28125 Z M 7.628906 -5.722656 "/></g></g></g><g fill="#4f3c2b" fill-opacity="1"><g transform="translate(148.997621, 312.993727)"><g><path d="M 17.191406 5.023438 L 16.484375 -15.234375 L 12.371094 -16.4375 L 0.863281 0.253906 L 3.011719 0.882812 L 7.371094 -5.46875 L 14.8125 -3.292969 L 15.066406 4.40625 Z M 13.820312 -14.875 L 14.421875 -14.699219 L 14.746094 -5.300781 L 8.511719 -7.125 Z M 13.820312 -14.875 "/></g></g></g><g fill="#4f3c2b" fill-opacity="1"><g transform="translate(171.718423, 319.137668)"><g><path d="M 4.210938 0.402344 L 4.949219 -7.289062 L 14.570312 -6.367188 L 13.832031 1.324219 L 16.0625 1.539062 L 16.75 -5.664062 C 16.847656 -6.667969 16.453125 -7.144531 15.367188 -7.25 L 13.085938 -7.46875 L 13.148438 -8.121094 C 15.246094 -8.277344 16.863281 -9.410156 17.140625 -12.289062 C 17.550781 -16.585938 14.742188 -17.921875 10.179688 -18.359375 L 3.820312 -18.96875 L 1.984375 0.191406 Z M 5.867188 -16.851562 L 9.996094 -16.457031 C 13.257812 -16.144531 15.210938 -15.65625 14.875 -12.125 C 14.539062 -8.617188 12.523438 -8.480469 9.261719 -8.792969 L 5.132812 -9.191406 Z M 5.867188 -16.851562 "/></g></g></g><g fill="#4f3c2b" fill-opacity="1"><g transform="translate(194.360137, 320.770064)"><g><path d="M 13.882812 -1.058594 L 13.738281 -2.964844 L 4.09375 -1.957031 L 2.753906 -19.511719 L 0.523438 -19.34375 L 1.882812 -1.511719 C 1.960938 -0.476562 2.609375 0.101562 3.667969 -0.0078125 Z M 13.882812 -1.058594 "/></g></g></g><g fill="#4f3c2b" fill-opacity="1"><g transform="translate(213.821982, 319.15476)"><g><path d="M -0.832031 -9.753906 C 0.621094 -4.320312 4.949219 -1.042969 10.433594 -2.515625 C 15.867188 -3.96875 17.972656 -8.972656 16.519531 -14.402344 C 15.070312 -19.808594 10.742188 -23.085938 5.308594 -21.632812 C -0.175781 -20.160156 -2.28125 -15.160156 -0.832031 -9.753906 Z M 1.328125 -10.332031 C 0.140625 -14.761719 1.402344 -18.605469 5.804688 -19.785156 C 10.183594 -20.960938 13.167969 -18.253906 14.355469 -13.824219 C 15.550781 -9.367188 14.316406 -5.53125 9.9375 -4.359375 C 5.535156 -3.179688 2.523438 -5.875 1.328125 -10.332031 Z M 1.328125 -10.332031 "/></g></g></g><g fill="#4f3c2b" fill-opacity="1"><g transform="translate(238.926297, 311.760967)"><g><path d="M 3.789062 -1.886719 L 0.347656 -8.800781 L 9 -13.109375 L 12.441406 -6.191406 L 14.445312 -7.1875 L 11.222656 -13.664062 C 10.769531 -14.570312 10.183594 -14.765625 9.207031 -14.28125 L 7.15625 -13.257812 L 6.863281 -13.84375 C 8.5625 -15.085938 9.335938 -16.90625 8.046875 -19.496094 C 6.125 -23.355469 3.035156 -23.007812 -1.070312 -20.964844 L -6.792969 -18.117188 L 1.785156 -0.886719 Z M -3.9375 -17.40625 L -0.21875 -19.253906 C 2.710938 -20.714844 4.628906 -21.332031 6.210938 -18.15625 C 7.78125 -15.003906 6.140625 -13.820312 3.210938 -12.363281 L -0.503906 -10.511719 Z M -3.9375 -17.40625 "/></g></g></g><g clip-path="url(#b012bacab9)"><path fill="#4f3c2b" d="M 327.148438 200.769531 L 327.039062 200.609375 C 327.007812 200.542969 326.96875 200.488281 326.921875 200.4375 L 323.804688 195.890625 C 323.691406 195.730469 323.511719 195.609375 323.316406 195.609375 L 307.960938 195.609375 C 307.769531 195.609375 307.585938 195.730469 307.476562 195.890625 L 304.355469 200.425781 C 304.308594 200.476562 304.269531 200.539062 304.242188 200.597656 L 304.128906 200.765625 C 303.976562 200.992188 303.992188 201.292969 304.167969 201.496094 L 315.195312 214.273438 C 315.199219 214.28125 315.203125 214.285156 315.207031 214.289062 C 315.230469 214.3125 315.253906 214.332031 315.277344 214.351562 C 315.289062 214.363281 315.300781 214.371094 315.3125 214.378906 C 315.320312 214.382812 315.332031 214.394531 315.34375 214.398438 C 315.351562 214.40625 315.359375 214.40625 315.367188 214.410156 C 315.398438 214.425781 315.429688 214.4375 315.460938 214.449219 C 315.472656 214.453125 315.488281 214.519531 315.5 214.523438 C 315.546875 214.535156 315.589844 214.601562 315.636719 214.601562 C 315.636719 214.601562 315.640625 214.601562 315.640625 214.601562 C 315.6875 214.601562 315.734375 214.535156 315.78125 214.523438 C 315.792969 214.519531 315.804688 214.484375 315.820312 214.480469 C 315.851562 214.46875 315.882812 214.441406 315.914062 214.425781 C 315.921875 214.421875 315.929688 214.410156 315.9375 214.40625 C 315.949219 214.402344 315.957031 214.390625 315.96875 214.382812 C 315.980469 214.375 315.992188 214.363281 316.003906 214.355469 C 316.027344 214.335938 316.050781 214.3125 316.070312 214.289062 C 316.078125 214.285156 316.082031 214.28125 316.085938 214.277344 L 327.109375 201.5 C 327.289062 201.292969 327.304688 200.992188 327.148438 200.769531 Z M 325.367188 200.273438 L 320.628906 200.3125 L 323.042969 196.902344 Z M 315.640625 212.101562 L 311.945312 201.511719 L 319.335938 201.511719 Z M 312.105469 200.230469 L 311.988281 200.109375 L 315.640625 197.011719 L 319.289062 200.097656 L 319.175781 200.230469 Z M 319.980469 199.226562 L 317.25 196.894531 L 321.628906 196.894531 Z M 311.300781 199.226562 L 309.648438 196.894531 L 314.03125 196.894531 Z M 308.234375 196.902344 L 310.652344 200.3125 L 305.910156 200.273438 Z M 305.699219 201.457031 L 310.691406 201.5 L 314.058594 211.144531 Z M 317.222656 211.144531 L 320.585938 201.5 L 325.582031 201.457031 Z M 317.222656 211.144531 " fill-opacity="1" fill-rule="nonzero"/></g><g clip-path="url(#346f5f302e)"><path fill="#4f3c2b" d="M 80.804688 200.769531 L 80.691406 200.609375 C 80.664062 200.542969 80.621094 200.488281 80.574219 200.4375 L 77.457031 195.890625 C 77.347656 195.730469 77.164062 195.609375 76.972656 195.609375 L 61.613281 195.609375 C 61.421875 195.609375 61.238281 195.730469 61.128906 195.890625 L 58.011719 200.425781 C 57.964844 200.476562 57.925781 200.539062 57.894531 200.597656 L 57.78125 200.765625 C 57.628906 200.992188 57.644531 201.292969 57.820312 201.496094 L 68.847656 214.273438 C 68.851562 214.28125 68.855469 214.285156 68.863281 214.289062 C 68.882812 214.3125 68.90625 214.332031 68.929688 214.351562 C 68.941406 214.363281 68.953125 214.371094 68.964844 214.378906 C 68.976562 214.382812 68.984375 214.394531 68.996094 214.398438 C 69.003906 214.40625 69.011719 214.40625 69.019531 214.410156 C 69.050781 214.425781 69.082031 214.4375 69.113281 214.449219 C 69.128906 214.453125 69.140625 214.519531 69.152344 214.523438 C 69.199219 214.535156 69.246094 214.601562 69.292969 214.601562 C 69.292969 214.601562 69.296875 214.601562 69.296875 214.601562 C 69.34375 214.601562 69.386719 214.535156 69.433594 214.523438 C 69.445312 214.519531 69.460938 214.484375 69.472656 214.480469 C 69.503906 214.46875 69.539062 214.441406 69.566406 214.425781 C 69.574219 214.421875 69.582031 214.410156 69.589844 214.40625 C 69.601562 214.402344 69.609375 214.390625 69.621094 214.382812 C 69.632812 214.375 69.644531 214.363281 69.65625 214.355469 C 69.683594 214.335938 69.703125 214.3125 69.726562 214.289062 C 69.730469 214.285156 69.734375 214.28125 69.738281 214.277344 L 80.765625 201.5 C 80.941406 201.292969 80.957031 200.992188 80.804688 200.769531 Z M 79.023438 200.273438 L 74.28125 200.3125 L 76.699219 196.902344 Z M 69.292969 212.101562 L 65.597656 201.511719 L 72.988281 201.511719 Z M 65.757812 200.230469 L 65.644531 200.109375 L 69.292969 197.011719 L 72.945312 200.097656 L 72.828125 200.230469 Z M 73.632812 199.226562 L 70.902344 196.894531 L 75.285156 196.894531 Z M 64.953125 199.226562 L 63.304688 196.894531 L 67.683594 196.894531 Z M 61.886719 196.902344 L 64.304688 200.3125 L 59.5625 200.273438 Z M 59.351562 201.457031 L 64.34375 201.5 L 67.710938 211.144531 Z M 70.875 211.144531 L 74.242188 201.5 L 79.234375 201.457031 Z M 70.875 211.144531 " fill-opacity="1" fill-rule="nonzero"/></g></svg>