<svg xmlns="http://www.w3.org/2000/svg" xmlns:xlink="http://www.w3.org/1999/xlink" width="500" zoomAndPan="magnify" viewBox="0 0 375 374.999991" height="500" preserveAspectRatio="xMidYMid meet" version="1.0"><defs><g/><clipPath id="3b7e70b9d8"><path d="M 103.46875 103.46875 L 271.46875 103.46875 L 271.46875 154 L 103.46875 154 Z M 103.46875 103.46875 " clip-rule="nonzero"/></clipPath><clipPath id="65f71c328c"><path d="M 103.46875 158 L 271.46875 158 L 271.46875 271.46875 L 103.46875 271.46875 Z M 103.46875 158 " clip-rule="nonzero"/></clipPath></defs><rect x="-37.5" width="450" fill="#ffffff" y="-37.499999" height="449.999989" fill-opacity="1"/><rect x="-37.5" width="450" fill="#ffffff" y="-37.499999" height="449.999989" fill-opacity="1"/><rect x="-37.5" width="450" fill="#8ddbc7" y="-37.499999" height="449.999989" fill-opacity="1"/><g clip-path="url(#3b7e70b9d8)"><path fill="#69c2ab" d="M 108.078125 153.953125 L 267.277344 153.953125 C 267.683594 153.953125 268.078125 153.894531 268.46875 153.777344 C 268.855469 153.664062 269.21875 153.496094 269.558594 153.277344 C 269.898438 153.054688 270.199219 152.789062 270.464844 152.484375 C 270.726562 152.175781 270.941406 151.835938 271.105469 151.464844 C 271.269531 151.097656 271.378906 150.710938 271.429688 150.308594 C 271.484375 149.90625 271.480469 149.507812 271.414062 149.105469 C 271.351562 148.707031 271.234375 148.324219 271.058594 147.960938 C 270.886719 147.59375 270.664062 147.261719 270.390625 146.960938 L 232.761719 105.148438 L 232.695312 105.074219 C 232.5625 104.960938 232.421875 104.859375 232.273438 104.765625 C 232.023438 104.515625 231.742188 104.304688 231.4375 104.125 C 231.40625 104.125 231.375 104.125 231.339844 104.101562 C 230.796875 103.945312 230.246094 103.816406 229.691406 103.710938 C 229.65625 103.703125 229.613281 103.675781 229.574219 103.675781 L 145.78125 103.675781 C 145.585938 103.703125 145.390625 103.746094 145.199219 103.804688 C 144.867188 103.820312 144.542969 103.875 144.222656 103.976562 C 144.199219 103.976562 144.183594 104.011719 144.152344 104.023438 C 143.964844 104.128906 143.78125 104.246094 143.613281 104.378906 C 143.308594 104.550781 143.027344 104.757812 142.773438 104.996094 C 142.75 105.027344 142.710938 105.035156 142.6875 105.0625 L 104.980469 146.960938 C 104.710938 147.261719 104.488281 147.59375 104.3125 147.957031 C 104.140625 148.320312 104.019531 148.703125 103.957031 149.101562 C 103.894531 149.503906 103.886719 149.902344 103.941406 150.304688 C 103.992188 150.703125 104.101562 151.089844 104.261719 151.457031 C 104.425781 151.828125 104.640625 152.167969 104.902344 152.476562 C 105.164062 152.78125 105.464844 153.046875 105.800781 153.269531 C 106.140625 153.488281 106.503906 153.660156 106.890625 153.773438 C 107.277344 153.890625 107.671875 153.949219 108.078125 153.953125 Z M 187.34375 116.570312 L 201.847656 145.574219 L 169.9375 145.574219 Z M 163.292969 140.363281 L 151.96875 112.054688 L 180.277344 112.054688 Z M 194.457031 112.054688 L 222.792969 112.054688 L 208.625 140.394531 Z M 215.402344 145.574219 L 230.570312 115.242188 L 257.875 145.574219 Z M 144.390625 115.675781 L 156.351562 145.574219 L 117.480469 145.574219 Z M 144.390625 115.675781 " fill-opacity="1" fill-rule="nonzero"/></g><g clip-path="url(#65f71c328c)"><path fill="#69c2ab" d="M 104.726562 164.867188 L 184.324219 269.605469 C 184.375 269.671875 184.464844 269.699219 184.519531 269.761719 C 184.796875 270.078125 185.117188 270.34375 185.476562 270.558594 C 185.613281 270.664062 185.753906 270.757812 185.898438 270.847656 C 186.449219 271.121094 187.03125 271.257812 187.648438 271.257812 C 188.265625 271.257812 188.847656 271.121094 189.398438 270.847656 C 189.542969 270.757812 189.683594 270.664062 189.820312 270.558594 C 190.179688 270.34375 190.5 270.078125 190.777344 269.761719 C 190.832031 269.699219 190.921875 269.671875 190.96875 269.605469 L 270.570312 164.867188 C 271.050781 164.234375 271.328125 163.527344 271.40625 162.738281 C 271.484375 161.949219 271.347656 161.199219 271 160.488281 C 270.648438 159.777344 270.140625 159.210938 269.472656 158.789062 C 268.800781 158.363281 268.070312 158.148438 267.277344 158.140625 L 108.078125 158.140625 C 107.28125 158.136719 106.542969 158.347656 105.863281 158.765625 C 105.183594 159.183594 104.667969 159.75 104.3125 160.460938 C 103.957031 161.175781 103.816406 161.929688 103.890625 162.722656 C 103.964844 163.515625 104.242188 164.230469 104.726562 164.867188 Z M 196.894531 248.039062 L 232.320312 166.519531 L 258.832031 166.519531 Z M 223.183594 166.519531 L 191.867188 238.546875 L 191.867188 166.519531 Z M 183.488281 238.546875 L 152.171875 166.519531 L 183.488281 166.519531 Z M 143.035156 166.519531 L 178.460938 248.039062 L 116.523438 166.519531 Z M 143.035156 166.519531 " fill-opacity="1" fill-rule="nonzero"/></g><g fill="#3d3c40" fill-opacity="1"><g transform="translate(114.942704, 219.086847)"><g><path d="M 109.953125 -71.484375 C 111.722656 -66.484375 111.335938 -61.484375 108.796875 -56.484375 C 108.554688 -56.003906 108.265625 -55.570312 107.921875 -55.1875 C 107.585938 -54.8125 107.117188 -54.554688 106.515625 -54.421875 C 106.109375 -54.347656 105.753906 -54.441406 105.453125 -54.703125 C 105.148438 -54.972656 105.035156 -55.285156 105.109375 -55.640625 C 105.347656 -56.328125 105.585938 -56.992188 105.828125 -57.640625 C 105.953125 -57.972656 106.097656 -58.289062 106.265625 -58.59375 C 107.515625 -62.0625 107.734375 -65.488281 106.921875 -68.875 C 106.046875 -72.738281 103.726562 -75.273438 99.96875 -76.484375 C 97.789062 -77.140625 95.59375 -77.492188 93.375 -77.546875 C 91.164062 -77.609375 88.914062 -77.4375 86.625 -77.03125 C 79.644531 -75.75 72.832031 -73.71875 66.1875 -70.9375 C 55.945312 -66.78125 46.191406 -61.601562 36.921875 -55.40625 C 28.953125 -50.082031 21.78125 -43.8125 15.40625 -36.59375 C 13.195312 -34.101562 11.191406 -31.457031 9.390625 -28.65625 C 7.597656 -25.851562 6.160156 -22.859375 5.078125 -19.671875 C 4.035156 -16.503906 3.535156 -13.304688 3.578125 -10.078125 C 3.703125 -6.597656 4.578125 -3.628906 6.203125 -1.171875 C 7.835938 1.273438 10.03125 3.0625 12.78125 4.1875 C 15.539062 5.3125 18.648438 5.59375 22.109375 5.03125 C 26.546875 4.28125 30.742188 2.695312 34.703125 0.28125 C 37.046875 -1.09375 39.234375 -2.644531 41.265625 -4.375 C 43.296875 -6.113281 45.253906 -7.953125 47.140625 -9.890625 C 51.703125 -14.648438 55.78125 -19.785156 59.375 -25.296875 C 61.457031 -28.554688 63.1875 -32.003906 64.5625 -35.640625 C 64.632812 -35.765625 64.691406 -35.910156 64.734375 -36.078125 C 65.054688 -36.921875 65.421875 -37.742188 65.828125 -38.546875 C 66.460938 -39.660156 67.46875 -40.144531 68.84375 -40 C 69.6875 -39.90625 70.15625 -39.421875 70.25 -38.546875 C 70.25 -37.242188 70.003906 -35.96875 69.515625 -34.71875 C 66.453125 -25.988281 63.125 -17.347656 59.53125 -8.796875 C 59.457031 -8.585938 59.375 -8.382812 59.28125 -8.1875 C 59.082031 -7.78125 58.910156 -7.378906 58.765625 -6.984375 C 58.710938 -6.867188 58.664062 -6.75 58.625 -6.625 C 58.425781 -6.144531 58.304688 -5.640625 58.265625 -5.109375 C 58.265625 -4.910156 58.332031 -4.757812 58.46875 -4.65625 C 58.613281 -4.550781 58.785156 -4.460938 58.984375 -4.390625 C 59.242188 -4.304688 59.445312 -4.1875 59.59375 -4.03125 C 59.644531 -4.03125 59.691406 -4.003906 59.734375 -3.953125 C 59.835938 -3.847656 59.929688 -3.734375 60.015625 -3.609375 C 60.097656 -3.492188 60.054688 -3.332031 59.890625 -3.125 C 59.785156 -2.925781 59.613281 -2.765625 59.375 -2.640625 C 59.113281 -2.503906 58.847656 -2.4375 58.578125 -2.4375 C 57.804688 -2.53125 57.195312 -2.363281 56.75 -1.9375 C 56.3125 -1.519531 55.945312 -0.984375 55.65625 -0.328125 C 54.582031 1.960938 53.476562 4.234375 52.34375 6.484375 C 50.007812 11.242188 47.390625 15.878906 44.484375 20.390625 C 42.671875 23.203125 40.632812 25.863281 38.375 28.375 C 36.050781 31.03125 33.296875 33.101562 30.109375 34.59375 C 28.367188 35.394531 26.59375 35.84375 24.78125 35.9375 C 22.695312 36.082031 21 35.582031 19.6875 34.4375 C 18.375 33.289062 17.632812 31.675781 17.46875 29.59375 C 17.34375 27.8125 17.582031 26.035156 18.1875 24.265625 C 19.445312 20.835938 21.304688 17.773438 23.765625 15.078125 C 30.015625 7.941406 37.46875 2.625 46.125 -0.875 C 47.570312 -1.445312 49.019531 -1.953125 50.46875 -2.390625 C 50.632812 -2.484375 50.816406 -2.546875 51.015625 -2.578125 C 52.097656 -2.890625 52.882812 -3.550781 53.375 -4.5625 C 53.820312 -5.625 54.28125 -6.675781 54.75 -7.71875 C 56.09375 -10.5 57.226562 -13.359375 58.15625 -16.296875 C 58.195312 -16.378906 58.195312 -16.457031 58.15625 -16.53125 C 58.101562 -16.570312 58.078125 -16.613281 58.078125 -16.65625 C 57.640625 -16.570312 57.289062 -16.390625 57.03125 -16.109375 C 56.78125 -15.828125 56.523438 -15.53125 56.265625 -15.21875 C 56.148438 -15.019531 56.015625 -14.816406 55.859375 -14.609375 C 52.753906 -10.890625 49.410156 -7.40625 45.828125 -4.15625 C 41.460938 -0.195312 36.625 2.863281 31.3125 5.03125 C 28.289062 6.238281 25.242188 7.035156 22.171875 7.421875 C 19.109375 7.804688 16.050781 7.695312 13 7.09375 C 9.457031 6.375 6.476562 4.671875 4.0625 1.984375 C 1.644531 -0.691406 0.191406 -4.0625 -0.296875 -8.125 C -0.578125 -10.675781 -0.488281 -13.1875 -0.03125 -15.65625 C 0.425781 -18.132812 1.1875 -20.582031 2.25 -23 C 3.457031 -25.707031 4.875 -28.269531 6.5 -30.6875 C 8.132812 -33.101562 9.941406 -35.4375 11.921875 -37.6875 C 18.878906 -45.582031 26.789062 -52.367188 35.65625 -58.046875 C 42 -62.171875 48.519531 -65.832031 55.21875 -69.03125 C 61.925781 -72.238281 68.847656 -74.90625 75.984375 -77.03125 C 79.117188 -78 82.296875 -78.734375 85.515625 -79.234375 C 88.742188 -79.742188 91.972656 -79.9375 95.203125 -79.8125 C 98.585938 -79.695312 101.753906 -78.914062 104.703125 -77.46875 C 107.265625 -76.175781 109.015625 -74.179688 109.953125 -71.484375 Z M 50.65625 0.875 C 50.726562 0.582031 50.6875 0.34375 50.53125 0.15625 C 50.375 -0.0195312 50.148438 -0.0625 49.859375 0.03125 C 49.222656 0.226562 48.601562 0.445312 48 0.6875 C 40.582031 3.945312 34.050781 8.546875 28.40625 14.484375 C 26.351562 16.609375 24.601562 18.960938 23.15625 21.546875 C 22.0625 23.359375 21.394531 25.488281 21.15625 27.9375 C 21.15625 27.976562 21.15625 28.0625 21.15625 28.1875 C 21.113281 28.519531 21.113281 28.941406 21.15625 29.453125 C 21.351562 31.296875 21.988281 32.535156 23.0625 33.171875 C 24.132812 33.804688 25.5625 33.753906 27.34375 33.015625 C 29.90625 31.847656 32.15625 30.203125 34.09375 28.078125 C 36.507812 25.535156 38.644531 22.785156 40.5 19.828125 C 42.34375 16.972656 44.0625 14.039062 45.65625 11.03125 C 47.25 8.03125 48.769531 5.003906 50.21875 1.953125 C 50.382812 1.585938 50.53125 1.25 50.65625 0.9375 C 50.65625 0.894531 50.65625 0.875 50.65625 0.875 Z M 50.65625 0.875 "/></g></g></g><g fill="#3d3c40" fill-opacity="1"><g transform="translate(185.584853, 219.086847)"><g><path d="M 15.65625 -10.546875 C 14.59375 -9.503906 13.351562 -8.613281 11.9375 -7.875 C 10.53125 -7.132812 9.351562 -6.648438 8.40625 -6.421875 C 7.457031 -6.191406 6.476562 -6.054688 5.46875 -6.015625 C 3.851562 -5.941406 2.367188 -6.160156 1.015625 -6.671875 C -1.203125 -7.566406 -1.972656 -9.28125 -1.296875 -11.8125 C -0.648438 -13.988281 0.648438 -15.691406 2.609375 -16.921875 C 4.566406 -18.148438 6.59375 -18.742188 8.6875 -18.703125 C 8.6875 -18.703125 8.703125 -18.703125 8.734375 -18.703125 C 9.265625 -18.742188 9.769531 -18.707031 10.25 -18.59375 C 11.050781 -18.300781 11.5625 -17.828125 11.78125 -17.171875 C 12 -16.515625 11.851562 -15.78125 11.34375 -14.96875 C 10.175781 -13.195312 8.582031 -12.207031 6.5625 -12 C 5.226562 -11.875 3.9375 -11.941406 2.6875 -12.203125 C 2.445312 -12.234375 2.234375 -12.164062 2.046875 -12 C 1.867188 -11.84375 1.765625 -11.644531 1.734375 -11.40625 C 1.367188 -9.820312 1.851562 -8.8125 3.1875 -8.375 C 4.832031 -7.8125 6.546875 -7.8125 8.328125 -8.375 C 10.378906 -9.019531 12.328125 -10.226562 14.171875 -12 C 16.023438 -13.78125 17.09375 -14.609375 17.375 -14.484375 C 17.65625 -14.367188 17.742188 -14.03125 17.640625 -13.46875 C 17.378906 -12.5625 16.71875 -11.585938 15.65625 -10.546875 Z M 3.953125 -14.96875 C 3.847656 -14.84375 3.769531 -14.703125 3.71875 -14.546875 C 3.675781 -14.390625 3.738281 -14.25 3.90625 -14.125 C 4.539062 -13.757812 5.234375 -13.625 5.984375 -13.71875 C 6.734375 -13.820312 7.367188 -14.109375 7.890625 -14.578125 C 8.421875 -15.046875 8.648438 -15.617188 8.578125 -16.296875 C 8.515625 -16.535156 8.382812 -16.6875 8.1875 -16.75 C 7.988281 -16.8125 7.785156 -16.820312 7.578125 -16.78125 C 6.222656 -16.539062 5.015625 -15.9375 3.953125 -14.96875 Z M 3.953125 -14.96875 "/></g></g></g><g fill="#3d3c40" fill-opacity="1"><g transform="translate(201.569974, 219.086847)"><g><path d="M 28.703125 -13.765625 C 29.347656 -14.171875 29.851562 -14.269531 30.21875 -14.0625 C 30.582031 -13.863281 30.445312 -13.296875 29.8125 -12.359375 C 29 -11.273438 27.550781 -10.117188 25.46875 -8.890625 C 23.394531 -7.671875 21.5625 -7.140625 19.96875 -7.296875 C 18.375 -7.453125 17.910156 -8.628906 18.578125 -10.828125 C 19.253906 -13.023438 19.617188 -14.253906 19.671875 -14.515625 C 19.722656 -14.785156 19.671875 -14.9375 19.515625 -14.96875 C 19.359375 -15.007812 19 -14.828125 18.4375 -14.421875 C 16.789062 -13.285156 15.175781 -12.097656 13.59375 -10.859375 C 12.914062 -10.335938 12.25 -9.796875 11.59375 -9.234375 C 11.1875 -8.867188 10.765625 -8.5 10.328125 -8.125 C 10.328125 -8.125 10.3125 -8.109375 10.28125 -8.078125 C 9.800781 -7.597656 9.210938 -7.273438 8.515625 -7.109375 C 8.203125 -7.023438 7.867188 -6.992188 7.515625 -7.015625 C 7.171875 -7.046875 6.882812 -7.179688 6.65625 -7.421875 C 6.375 -7.691406 6.269531 -7.976562 6.34375 -8.28125 C 6.414062 -8.582031 6.644531 -9.035156 7.03125 -9.640625 C 7.414062 -10.242188 7.84375 -10.90625 8.3125 -11.625 C 8.78125 -12.351562 9.039062 -12.800781 9.09375 -12.96875 C 9.144531 -13.132812 9.117188 -13.300781 9.015625 -13.46875 C 8.878906 -13.625 8.734375 -13.671875 8.578125 -13.609375 C 8.429688 -13.546875 7.851562 -13.148438 6.84375 -12.421875 C 5.832031 -11.703125 4.457031 -10.691406 2.71875 -9.390625 C 1.914062 -8.785156 1.128906 -8.164062 0.359375 -7.53125 C 0.160156 -7.320312 -0.0546875 -7.140625 -0.296875 -6.984375 C -0.867188 -6.503906 -1.492188 -6.242188 -2.171875 -6.203125 C -2.660156 -6.171875 -3.023438 -6.28125 -3.265625 -6.53125 C -3.503906 -6.789062 -3.539062 -7.140625 -3.375 -7.578125 C -3.269531 -7.910156 -3.132812 -8.210938 -2.96875 -8.484375 C -2.875 -8.617188 -2.8125 -8.75 -2.78125 -8.875 C -1.332031 -11.800781 0.0976562 -14.738281 1.515625 -17.6875 C 1.546875 -17.757812 1.582031 -17.863281 1.625 -18 C 1.789062 -18.3125 1.953125 -18.613281 2.109375 -18.90625 C 2.554688 -19.375 3.082031 -19.53125 3.6875 -19.375 C 4.375 -19.164062 4.640625 -18.757812 4.484375 -18.15625 C 4.148438 -17.238281 3.828125 -16.332031 3.515625 -15.4375 C 3.347656 -15.03125 3.179688 -14.628906 3.015625 -14.234375 C 2.742188 -13.515625 2.65625 -13.054688 2.75 -12.859375 C 2.851562 -12.660156 3.3125 -12.796875 4.125 -13.265625 C 4.664062 -13.628906 5.203125 -14 5.734375 -14.375 C 6.378906 -14.8125 7.003906 -15.210938 7.609375 -15.578125 C 8.546875 -16.140625 9.5 -16.625 10.46875 -17.03125 C 10.945312 -17.226562 11.4375 -17.378906 11.9375 -17.484375 C 12.4375 -17.585938 12.910156 -17.472656 13.359375 -17.140625 C 13.679688 -16.867188 13.816406 -16.554688 13.765625 -16.203125 C 13.722656 -15.859375 13.628906 -15.53125 13.484375 -15.21875 C 13.234375 -14.613281 13.128906 -14.226562 13.171875 -14.0625 C 13.222656 -13.894531 13.363281 -13.863281 13.59375 -13.96875 C 13.832031 -14.070312 14.253906 -14.304688 14.859375 -14.671875 C 15.460938 -15.035156 16.113281 -15.4375 16.8125 -15.875 C 17.6875 -16.445312 18.613281 -16.988281 19.59375 -17.5 C 20.394531 -18.03125 21.253906 -18.351562 22.171875 -18.46875 C 23.429688 -18.550781 23.945312 -18.039062 23.71875 -16.9375 C 23.488281 -15.832031 23.046875 -14.515625 22.390625 -12.984375 C 21.734375 -11.453125 21.664062 -10.507812 22.1875 -10.15625 C 22.707031 -9.8125 23.863281 -10.285156 25.65625 -11.578125 C 27.457031 -12.867188 28.472656 -13.597656 28.703125 -13.765625 Z M 28.703125 -13.765625 "/></g></g></g><g fill="#3d3c40" fill-opacity="1"><g transform="translate(230.628836, 219.086847)"><g><path d="M 13.296875 -13.921875 C 10.398438 -12.847656 8.3125 -11.972656 7.03125 -11.296875 C 6.09375 -10.835938 5.554688 -10.457031 5.421875 -10.15625 C 5.285156 -9.851562 5.390625 -9.296875 5.734375 -8.484375 C 5.734375 -8.453125 5.765625 -8.398438 5.828125 -8.328125 C 6.222656 -7.359375 6.457031 -6.347656 6.53125 -5.296875 C 6.664062 -3.191406 4.878906 -1.71875 1.171875 -0.875 C -2.535156 -0.03125 -5.015625 -0.00390625 -6.265625 -0.796875 C -7.523438 -1.585938 -7.910156 -2.585938 -7.421875 -3.796875 C -6.941406 -5.003906 -5.6875 -6.226562 -3.65625 -7.46875 C -1.625 -8.71875 -0.265625 -9.613281 0.421875 -10.15625 C 1.109375 -10.707031 1.316406 -11.320312 1.046875 -12 C 0.953125 -12.238281 0.847656 -12.476562 0.734375 -12.71875 C 0.503906 -13.289062 0.257812 -13.878906 0 -14.484375 C -0.476562 -15.578125 -0.679688 -16.65625 -0.609375 -17.71875 C -0.546875 -18.78125 -0.15625 -19.671875 0.5625 -20.390625 C 1.28125 -21.117188 2.398438 -21.507812 3.921875 -21.5625 C 4.785156 -21.601562 5.554688 -21.488281 6.234375 -21.21875 C 6.910156 -20.957031 7.453125 -20.46875 7.859375 -19.75 C 8.191406 -19.257812 8.09375 -18.8125 7.5625 -18.40625 C 7.207031 -18.132812 6.828125 -18.097656 6.421875 -18.296875 C 6.171875 -18.410156 5.925781 -18.566406 5.6875 -18.765625 C 5.6875 -18.816406 5.6875 -18.84375 5.6875 -18.84375 C 5.570312 -18.914062 5.472656 -18.988281 5.390625 -19.0625 C 5.273438 -19.226562 5.15625 -19.359375 5.03125 -19.453125 C 4.550781 -19.796875 4.066406 -19.898438 3.578125 -19.765625 C 3.097656 -19.628906 2.738281 -19.257812 2.5 -18.65625 C 2.332031 -18.175781 2.25 -17.691406 2.25 -17.203125 C 2.289062 -16.597656 2.429688 -16.007812 2.671875 -15.4375 C 2.828125 -15.09375 2.972656 -14.773438 3.109375 -14.484375 C 3.421875 -13.671875 3.675781 -13.113281 3.875 -12.8125 C 4.070312 -12.507812 4.3125 -12.378906 4.59375 -12.421875 C 4.882812 -12.472656 7.484375 -13.40625 12.390625 -15.21875 C 13.453125 -15.570312 13.753906 -15.140625 13.296875 -13.921875 Z M 1.40625 -3.4375 C 2.6875 -3.875 3.222656 -4.734375 3.015625 -6.015625 C 3.015625 -6.109375 3 -6.207031 2.96875 -6.3125 C 2.894531 -7.007812 2.75 -7.546875 2.53125 -7.921875 C 2.3125 -8.296875 1.816406 -8.285156 1.046875 -7.890625 C -0.859375 -6.804688 -2.617188 -5.539062 -4.234375 -4.09375 C -4.335938 -3.96875 -4.4375 -3.847656 -4.53125 -3.734375 C -4.53125 -3.734375 -4.550781 -3.707031 -4.59375 -3.65625 C -4.695312 -3.507812 -4.710938 -3.34375 -4.640625 -3.15625 C -4.566406 -2.976562 -4.40625 -2.890625 -4.15625 -2.890625 C -2.257812 -2.585938 -0.40625 -2.769531 1.40625 -3.4375 Z M 1.40625 -3.4375 "/></g></g></g><g fill="#3d3c40" fill-opacity="1"><g transform="translate(242.795351, 219.086847)"><g/></g></g><g fill="#3d3c40" fill-opacity="1"><g transform="translate(103.385644, 297.55545)"><g><path d="M 133.578125 -34.609375 C 134.015625 -34.523438 134.359375 -34.34375 134.609375 -34.0625 C 134.867188 -33.789062 134.925781 -33.523438 134.78125 -33.265625 C 134.613281 -33.023438 134.429688 -32.878906 134.234375 -32.828125 C 134.035156 -32.773438 133.816406 -32.765625 133.578125 -32.796875 C 133.285156 -32.796875 132.984375 -32.816406 132.671875 -32.859375 C 128.304688 -32.984375 122.53125 -32.726562 115.34375 -32.09375 C 108.15625 -31.46875 102.363281 -30.851562 97.96875 -30.25 C 94.582031 -29.8125 91.195312 -29.332031 87.8125 -28.8125 C 87.726562 -28.8125 87.625 -28.785156 87.5 -28.734375 C 86.09375 -28.535156 84.800781 -28.015625 83.625 -27.171875 C 79.320312 -24.242188 74.867188 -21.585938 70.265625 -19.203125 C 65.671875 -16.816406 60.984375 -14.601562 56.203125 -12.5625 C 48.460938 -9.132812 40.546875 -6.144531 32.453125 -3.59375 C 30.796875 -3.15625 29.582031 -2.148438 28.8125 -0.578125 C 25.226562 6.585938 21.484375 13.59375 17.578125 20.4375 C 14.117188 26.539062 10.796875 32.710938 7.609375 38.953125 C 7.609375 38.992188 7.59375 39.03125 7.5625 39.0625 C 7.425781 39.394531 7.257812 39.660156 7.0625 39.859375 C 6.726562 40.140625 6.34375 40.242188 5.90625 40.171875 C 5.664062 40.242188 5.425781 40.242188 5.1875 40.171875 C 4.695312 39.960938 4.453125 39.59375 4.453125 39.0625 C 4.503906 38.1875 4.785156 37.363281 5.296875 36.59375 C 5.335938 36.5625 5.359375 36.515625 5.359375 36.453125 C 8.578125 30.671875 11.75 24.882812 14.875 19.09375 C 18 13.300781 21.015625 7.429688 23.921875 1.484375 C 24.160156 0.984375 24.398438 0.476562 24.640625 -0.03125 C 24.734375 -0.28125 24.835938 -0.546875 24.953125 -0.828125 C 24.671875 -0.898438 24.410156 -0.960938 24.171875 -1.015625 C 23.710938 -0.921875 23.265625 -0.789062 22.828125 -0.625 C 22.660156 -0.59375 22.503906 -0.539062 22.359375 -0.46875 C 16.722656 1.144531 11.019531 2.519531 5.25 3.65625 C 1.257812 4.363281 -2.75 4.867188 -6.78125 5.171875 C -6.988281 5.203125 -7.171875 5.21875 -7.328125 5.21875 C -7.734375 5.257812 -8.140625 5.28125 -8.546875 5.28125 C -10.097656 5.28125 -11.609375 5.039062 -13.078125 4.5625 C -14.191406 4.15625 -14.859375 3.515625 -15.078125 2.640625 C -15.296875 1.773438 -15.03125 0.835938 -14.28125 -0.171875 C -13.28125 -1.335938 -12.09375 -2.296875 -10.71875 -3.046875 C -7.601562 -4.992188 -4.332031 -6.585938 -0.90625 -7.828125 C 8.226562 -11.285156 17.492188 -14.328125 26.890625 -16.953125 C 27.410156 -17.117188 27.953125 -17.265625 28.515625 -17.390625 C 29.722656 -17.628906 30.847656 -17.984375 31.890625 -18.453125 C 32.941406 -18.921875 33.734375 -19.726562 34.265625 -20.875 C 36.234375 -25.4375 38.132812 -30.003906 39.96875 -34.578125 C 41.800781 -39.148438 43.503906 -43.796875 45.078125 -48.515625 C 45.078125 -48.554688 45.097656 -48.613281 45.140625 -48.6875 C 45.378906 -49.539062 45.695312 -50.34375 46.09375 -51.09375 C 46.257812 -51.351562 46.472656 -51.53125 46.734375 -51.625 C 47.003906 -51.726562 47.28125 -51.753906 47.5625 -51.703125 C 47.757812 -51.753906 47.976562 -51.753906 48.21875 -51.703125 C 48.820312 -51.554688 49.171875 -51.15625 49.265625 -50.5 C 49.265625 -49.25 49.035156 -48.039062 48.578125 -46.875 C 48.578125 -46.832031 48.554688 -46.773438 48.515625 -46.703125 C 46.535156 -40.660156 44.320312 -34.71875 41.875 -28.875 C 41.226562 -27.257812 40.566406 -25.664062 39.890625 -24.09375 C 39.628906 -23.53125 39.382812 -22.941406 39.15625 -22.328125 C 38.84375 -21.617188 38.710938 -21.128906 38.765625 -20.859375 C 38.816406 -20.597656 39.003906 -20.472656 39.328125 -20.484375 C 39.648438 -20.503906 40.039062 -20.597656 40.5 -20.765625 C 40.644531 -20.804688 40.800781 -20.84375 40.96875 -20.875 C 42.738281 -21.332031 44.515625 -21.78125 46.296875 -22.21875 C 49.515625 -23.03125 52.753906 -23.835938 56.015625 -24.640625 C 64.003906 -26.523438 72.046875 -28.140625 80.140625 -29.484375 C 81.585938 -29.722656 82.851562 -30.28125 83.9375 -31.15625 C 86.238281 -32.894531 88.515625 -34.941406 90.765625 -37.296875 C 93.023438 -39.648438 94.890625 -42.1875 96.359375 -44.90625 C 97.835938 -47.625 98.503906 -50.414062 98.359375 -53.28125 C 98.210938 -56.144531 96.894531 -58.988281 94.40625 -61.8125 C 92.789062 -63.5 90.957031 -64.910156 88.90625 -66.046875 C 84.582031 -68.367188 79.390625 -70.070312 73.328125 -71.15625 C 67.265625 -72.25 60.765625 -72.828125 53.828125 -72.890625 C 46.898438 -72.960938 39.957031 -72.613281 33 -71.84375 C 26.050781 -71.070312 19.546875 -70.003906 13.484375 -68.640625 C 7.421875 -67.273438 2.222656 -65.722656 -2.109375 -63.984375 C -5.867188 -62.503906 -9.441406 -60.671875 -12.828125 -58.484375 C -14.203125 -57.648438 -15.492188 -56.726562 -16.703125 -55.71875 C -17.910156 -54.707031 -18.992188 -53.550781 -19.953125 -52.25 C -20.316406 -51.6875 -20.800781 -51.382812 -21.40625 -51.34375 C -21.53125 -51.34375 -21.675781 -51.34375 -21.84375 -51.34375 C -21.875 -51.34375 -21.910156 -51.34375 -21.953125 -51.34375 C -22.191406 -51.34375 -22.421875 -51.375 -22.640625 -51.4375 C -22.859375 -51.507812 -23.03125 -51.644531 -23.15625 -51.84375 C -23.226562 -52.007812 -23.265625 -52.175781 -23.265625 -52.34375 C -23.265625 -52.519531 -23.25 -52.671875 -23.21875 -52.796875 C -22.90625 -53.535156 -22.484375 -54.179688 -21.953125 -54.734375 C -21.421875 -55.296875 -20.878906 -55.84375 -20.328125 -56.375 C -18.859375 -57.625 -17.332031 -58.75 -15.75 -59.75 C -14.164062 -60.757812 -12.539062 -61.703125 -10.875 -62.578125 C -6.613281 -64.847656 -1.160156 -66.890625 5.484375 -68.703125 C 12.140625 -70.523438 19.445312 -71.988281 27.40625 -73.09375 C 35.363281 -74.195312 43.378906 -74.800781 51.453125 -74.90625 C 59.535156 -75.007812 67.101562 -74.472656 74.15625 -73.296875 C 81.207031 -72.128906 87.210938 -70.171875 92.171875 -67.421875 C 94.390625 -66.210938 96.378906 -64.664062 98.140625 -62.78125 C 100.609375 -59.988281 102.007812 -57.234375 102.34375 -54.515625 C 102.6875 -51.796875 102.3125 -49.160156 101.21875 -46.609375 C 100.132812 -44.054688 98.632812 -41.617188 96.71875 -39.296875 C 94.800781 -36.984375 92.835938 -34.816406 90.828125 -32.796875 C 90.585938 -32.597656 90.347656 -32.347656 90.109375 -32.046875 C 89.867188 -31.742188 89.765625 -31.488281 89.796875 -31.28125 C 89.835938 -31.082031 90.144531 -31.019531 90.71875 -31.09375 C 97.476562 -32.195312 104.222656 -33.023438 110.953125 -33.578125 C 117.679688 -34.140625 124.453125 -34.519531 131.265625 -34.71875 C 131.472656 -34.71875 131.65625 -34.71875 131.8125 -34.71875 L 131.875 -34.71875 C 132.4375 -34.71875 133.003906 -34.679688 133.578125 -34.609375 Z M 27.203125 -5.296875 C 27.347656 -5.671875 27.617188 -6.195312 28.015625 -6.875 C 28.585938 -7.945312 29.1875 -9.140625 29.8125 -10.453125 C 30.4375 -11.765625 30.890625 -12.914062 31.171875 -13.90625 C 31.453125 -14.894531 31.3125 -15.429688 30.75 -15.515625 C 30.394531 -15.460938 30.050781 -15.382812 29.71875 -15.28125 C 29.644531 -15.28125 29.546875 -15.257812 29.421875 -15.21875 C 28.140625 -14.8125 26.847656 -14.425781 25.546875 -14.0625 C 22.453125 -13.164062 19.347656 -12.210938 16.234375 -11.203125 C 16.085938 -11.171875 15.929688 -11.117188 15.765625 -11.046875 C 10.203125 -9.335938 4.71875 -7.378906 -0.6875 -5.171875 C -3.414062 -4.046875 -6.007812 -2.679688 -8.46875 -1.078125 C -9.394531 -0.546875 -10.160156 0.160156 -10.765625 1.046875 C -11.003906 1.410156 -11.070312 1.742188 -10.96875 2.046875 C -10.875 2.347656 -10.625 2.582031 -10.21875 2.75 C -9.375 3.019531 -8.515625 3.15625 -7.640625 3.15625 C -6.867188 3.15625 -6.097656 3.117188 -5.328125 3.046875 C -5.296875 3.046875 -5.28125 3.046875 -5.28125 3.046875 C -1.28125 2.640625 2.648438 1.988281 6.515625 1.09375 C 12.648438 -0.257812 18.710938 -1.84375 24.703125 -3.65625 C 24.796875 -3.707031 24.859375 -3.734375 24.890625 -3.734375 C 25.367188 -3.847656 25.804688 -4.015625 26.203125 -4.234375 C 26.609375 -4.453125 26.941406 -4.804688 27.203125 -5.296875 Z M 32.34375 -6.375 C 35.96875 -7.3125 40.898438 -9.054688 47.140625 -11.609375 C 53.390625 -14.160156 59.394531 -16.859375 65.15625 -19.703125 C 70.914062 -22.554688 74.835938 -24.910156 76.921875 -26.765625 C 76.648438 -26.765625 76.414062 -26.765625 76.21875 -26.765625 C 76.125 -26.765625 76.054688 -26.765625 76.015625 -26.765625 C 63.359375 -24.253906 50.832031 -21.265625 38.4375 -17.796875 C 37.332031 -17.484375 36.582031 -16.828125 36.1875 -15.828125 C 35.4375 -14.210938 34.691406 -12.617188 33.953125 -11.046875 C 33.390625 -9.867188 32.820312 -8.675781 32.25 -7.46875 C 32.175781 -7.300781 32.128906 -7.117188 32.109375 -6.921875 C 32.097656 -6.722656 32.175781 -6.539062 32.34375 -6.375 Z M 32.34375 -6.375 "/></g></g></g><g fill="#3d3c40" fill-opacity="1"><g transform="translate(180.399868, 297.55545)"><g><path d="M 19.921875 -14 C 20.359375 -13.75 20.394531 -13.148438 20.03125 -12.203125 C 19.5 -11.503906 18.929688 -10.851562 18.328125 -10.25 C 17.722656 -9.644531 17.0625 -9.101562 16.34375 -8.625 C 16.289062 -8.625 16.265625 -8.609375 16.265625 -8.578125 C 15.785156 -8.242188 15.28125 -7.957031 14.75 -7.71875 C 10.375 -6.144531 8.140625 -7.070312 8.046875 -10.5 C 6.273438 -8.957031 5.085938 -8.015625 4.484375 -7.671875 C 3.035156 -6.804688 1.46875 -6.421875 -0.21875 -6.515625 C -1.46875 -6.585938 -2.316406 -6.96875 -2.765625 -7.65625 C -3.210938 -8.34375 -3.171875 -9.269531 -2.640625 -10.4375 C -1.828125 -12.289062 -0.679688 -13.941406 0.796875 -15.390625 C 2.535156 -16.992188 4.46875 -18.285156 6.59375 -19.265625 C 7.726562 -19.828125 8.921875 -20.046875 10.171875 -19.921875 C 11.410156 -19.847656 12.160156 -19.140625 12.421875 -17.796875 C 12.523438 -17.398438 12.421875 -17.046875 12.109375 -16.734375 C 11.710938 -16.367188 11.25 -16.285156 10.71875 -16.484375 C 10.675781 -16.484375 10.625 -16.488281 10.5625 -16.5 C 10.5 -16.519531 10.445312 -16.550781 10.40625 -16.59375 C 9.875 -17.320312 9.335938 -17.625 8.796875 -17.5 C 8.265625 -17.382812 7.695312 -17.144531 7.09375 -16.78125 C 4.269531 -15.132812 2.171875 -12.835938 0.796875 -9.890625 C 0.722656 -9.765625 0.675781 -9.625 0.65625 -9.46875 C 0.632812 -9.3125 0.679688 -9.1875 0.796875 -9.09375 C 1.128906 -8.976562 1.492188 -9 1.890625 -9.15625 C 2.296875 -9.3125 2.695312 -9.539062 3.09375 -9.84375 C 3.5 -10.144531 3.84375 -10.398438 4.125 -10.609375 C 4.15625 -10.660156 4.171875 -10.6875 4.171875 -10.6875 C 5.515625 -11.800781 6.828125 -12.945312 8.109375 -14.125 C 8.671875 -14.726562 9.375 -15.066406 10.21875 -15.140625 C 11.425781 -15.140625 11.929688 -14.597656 11.734375 -13.515625 C 11.617188 -13.109375 11.5 -12.707031 11.375 -12.3125 C 10.894531 -10.570312 10.875 -9.550781 11.3125 -9.25 C 11.757812 -8.945312 12.4375 -8.945312 13.34375 -9.25 C 14.25 -9.550781 15.15625 -10.125 16.0625 -10.96875 C 16.96875 -11.820312 17.726562 -12.601562 18.34375 -13.3125 C 18.96875 -14.019531 19.492188 -14.25 19.921875 -14 Z M 19.921875 -14 "/></g></g></g><g fill="#3d3c40" fill-opacity="1"><g transform="translate(198.609723, 297.55545)"><g><path d="M 13.1875 -16.859375 C 13.019531 -15.597656 12.421875 -14.773438 11.390625 -14.390625 C 10.367188 -14.003906 10.035156 -14.507812 10.390625 -15.90625 C 10.753906 -17.300781 10.128906 -17.65625 8.515625 -16.96875 C 6.898438 -16.28125 5.570312 -15.414062 4.53125 -14.375 C 2.914062 -12.71875 1.488281 -10.9375 0.25 -9.03125 C 0.125 -8.875 0.0195312 -8.738281 -0.0625 -8.625 C -0.425781 -8.09375 -0.789062 -7.585938 -1.15625 -7.109375 C -1.394531 -6.785156 -1.671875 -6.582031 -1.984375 -6.5 C -2.304688 -6.414062 -2.632812 -6.398438 -2.96875 -6.453125 C -3.28125 -6.492188 -3.515625 -6.613281 -3.671875 -6.8125 C -3.835938 -7.007812 -3.859375 -7.25 -3.734375 -7.53125 C -3.535156 -8.019531 -3.296875 -8.519531 -3.015625 -9.03125 C -1.367188 -12.09375 0.300781 -15.164062 2 -18.25 C 2.039062 -18.28125 2.0625 -18.316406 2.0625 -18.359375 C 2.300781 -18.828125 2.582031 -19.265625 2.90625 -19.671875 C 3.28125 -20.078125 3.703125 -20.242188 4.171875 -20.171875 C 4.648438 -20.097656 4.972656 -19.8125 5.140625 -19.3125 C 5.335938 -18.675781 5.507812 -18.316406 5.65625 -18.234375 C 5.800781 -18.148438 6.132812 -18.207031 6.65625 -18.40625 C 7.75 -18.8125 8.816406 -19.09375 9.859375 -19.25 C 10.898438 -19.414062 11.753906 -19.375 12.421875 -19.125 C 13.097656 -18.882812 13.351562 -18.128906 13.1875 -16.859375 Z M 13.1875 -16.859375 "/></g></g></g><g fill="#3d3c40" fill-opacity="1"><g transform="translate(212.342645, 297.55545)"><g><path d="M 13.296875 -13.109375 C 13.898438 -13.710938 14.398438 -14.050781 14.796875 -14.125 C 15.203125 -14.195312 15.460938 -14.128906 15.578125 -13.921875 C 15.703125 -13.722656 15.628906 -13.453125 15.359375 -13.109375 C 13.742188 -11.160156 11.9375 -9.484375 9.9375 -8.078125 C 7.945312 -6.671875 5.894531 -5.851562 3.78125 -5.625 C 1.664062 -5.40625 0.382812 -6.5625 -0.0625 -9.09375 C -0.382812 -11.601562 1.132812 -16.710938 4.5 -24.421875 C 7.875 -32.128906 10.539062 -38.445312 12.5 -43.375 C 12.664062 -43.820312 12.914062 -44.207031 13.25 -44.53125 C 13.6875 -44.96875 14.207031 -45.070312 14.8125 -44.84375 C 15.007812 -44.75 15.207031 -44.597656 15.40625 -44.390625 C 15.613281 -44.191406 15.679688 -43.835938 15.609375 -43.328125 C 6.941406 -22.773438 2.742188 -11.597656 3.015625 -9.796875 C 3.296875 -8.003906 4.457031 -7.5625 6.5 -8.46875 C 8.539062 -9.375 10.113281 -10.300781 11.21875 -11.25 C 12.332031 -12.195312 13.023438 -12.816406 13.296875 -13.109375 Z M 13.296875 -13.109375 "/></g></g></g><g fill="#3d3c40" fill-opacity="1"><g transform="translate(226.048101, 297.55545)"><g><path d="M 4.375 -6.515625 L 4.28125 -6.515625 C 1.625 -6.546875 -0.117188 -7.132812 -0.953125 -8.28125 C -1.796875 -9.425781 -1.765625 -10.953125 -0.859375 -12.859375 C -0.0859375 -14.304688 0.882812 -15.570312 2.0625 -16.65625 C 2.46875 -17.019531 2.878906 -17.3125 3.296875 -17.53125 C 3.710938 -17.75 4.1875 -17.859375 4.71875 -17.859375 C 5.03125 -17.910156 5.390625 -17.851562 5.796875 -17.6875 C 5.921875 -17.65625 6.050781 -17.613281 6.1875 -17.5625 C 6.5 -17.613281 6.800781 -17.710938 7.09375 -17.859375 C 7.164062 -17.910156 7.265625 -17.957031 7.390625 -18 C 7.992188 -18.238281 8.632812 -18.335938 9.3125 -18.296875 C 9.582031 -18.296875 9.867188 -18.296875 10.171875 -18.296875 C 11.242188 -18.128906 12.054688 -17.675781 12.609375 -16.9375 C 13.160156 -16.195312 13.351562 -15.296875 13.1875 -14.234375 C 13.09375 -13.585938 12.890625 -12.984375 12.578125 -12.421875 C 10.472656 -8.648438 7.789062 -6.679688 4.53125 -6.515625 Z M 8.703125 -16.34375 C 7.253906 -16.394531 5.96875 -15.976562 4.84375 -15.09375 C 3.71875 -14.207031 2.878906 -13.1875 2.328125 -12.03125 C 1.785156 -10.875 1.632812 -9.925781 1.875 -9.1875 C 2.125 -8.445312 2.890625 -8.242188 4.171875 -8.578125 C 5.617188 -9.015625 6.894531 -9.835938 8 -11.046875 C 9.113281 -12.253906 9.789062 -13.398438 10.03125 -14.484375 C 10.28125 -15.578125 9.835938 -16.195312 8.703125 -16.34375 Z M 8.703125 -16.34375 "/></g></g></g><g fill="#3d3c40" fill-opacity="1"><g transform="translate(240.632463, 297.55545)"><g><path d="M 13.1875 -16.859375 C 13.019531 -15.597656 12.421875 -14.773438 11.390625 -14.390625 C 10.367188 -14.003906 10.035156 -14.507812 10.390625 -15.90625 C 10.753906 -17.300781 10.128906 -17.65625 8.515625 -16.96875 C 6.898438 -16.28125 5.570312 -15.414062 4.53125 -14.375 C 2.914062 -12.71875 1.488281 -10.9375 0.25 -9.03125 C 0.125 -8.875 0.0195312 -8.738281 -0.0625 -8.625 C -0.425781 -8.09375 -0.789062 -7.585938 -1.15625 -7.109375 C -1.394531 -6.785156 -1.671875 -6.582031 -1.984375 -6.5 C -2.304688 -6.414062 -2.632812 -6.398438 -2.96875 -6.453125 C -3.28125 -6.492188 -3.515625 -6.613281 -3.671875 -6.8125 C -3.835938 -7.007812 -3.859375 -7.25 -3.734375 -7.53125 C -3.535156 -8.019531 -3.296875 -8.519531 -3.015625 -9.03125 C -1.367188 -12.09375 0.300781 -15.164062 2 -18.25 C 2.039062 -18.28125 2.0625 -18.316406 2.0625 -18.359375 C 2.300781 -18.828125 2.582031 -19.265625 2.90625 -19.671875 C 3.28125 -20.078125 3.703125 -20.242188 4.171875 -20.171875 C 4.648438 -20.097656 4.972656 -19.8125 5.140625 -19.3125 C 5.335938 -18.675781 5.507812 -18.316406 5.65625 -18.234375 C 5.800781 -18.148438 6.132812 -18.207031 6.65625 -18.40625 C 7.75 -18.8125 8.816406 -19.09375 9.859375 -19.25 C 10.898438 -19.414062 11.753906 -19.375 12.421875 -19.125 C 13.097656 -18.882812 13.351562 -18.128906 13.1875 -16.859375 Z M 13.1875 -16.859375 "/></g></g></g><g fill="#1a4238" fill-opacity="1"><g transform="translate(201.569938, 325.060965)"><g><path d="M -0.03125 1.125 C -0.21875 1.125 -0.363281 1.097656 -0.46875 1.046875 L -0.46875 0.625 C -0.332031 0.664062 -0.1875 0.6875 -0.03125 0.6875 C 0.15625 0.6875 0.300781 0.625 0.40625 0.5 C 0.507812 0.382812 0.5625 0.21875 0.5625 0 L 0.5625 -4.296875 L 1.0625 -4.296875 L 1.0625 -0.046875 C 1.0625 0.328125 0.96875 0.613281 0.78125 0.8125 C 0.59375 1.019531 0.320312 1.125 -0.03125 1.125 Z M -0.03125 1.125 "/></g></g></g><g fill="#1a4238" fill-opacity="1"><g transform="translate(203.972836, 325.060965)"><g><path d="M 2.984375 0 L 0.59375 0 L 0.59375 -4.296875 L 2.984375 -4.296875 L 2.984375 -3.84375 L 1.09375 -3.84375 L 1.09375 -2.46875 L 2.875 -2.46875 L 2.875 -2.03125 L 1.09375 -2.03125 L 1.09375 -0.453125 L 2.984375 -0.453125 Z M 2.984375 0 "/></g></g></g><g fill="#1a4238" fill-opacity="1"><g transform="translate(208.116164, 325.060965)"><g><path d="M 4.34375 0 L 3.84375 0 L 2.984375 -2.875 C 2.941406 -3 2.894531 -3.15625 2.84375 -3.34375 C 2.789062 -3.539062 2.765625 -3.660156 2.765625 -3.703125 C 2.722656 -3.441406 2.65625 -3.160156 2.5625 -2.859375 L 1.71875 0 L 1.21875 0 L 0.078125 -4.296875 L 0.609375 -4.296875 L 1.28125 -1.640625 C 1.375 -1.265625 1.441406 -0.925781 1.484375 -0.625 C 1.546875 -0.988281 1.628906 -1.34375 1.734375 -1.6875 L 2.5 -4.296875 L 3.03125 -4.296875 L 3.828125 -1.65625 C 3.921875 -1.351562 4.003906 -1.007812 4.078125 -0.625 C 4.109375 -0.90625 4.175781 -1.242188 4.28125 -1.640625 L 4.953125 -4.296875 L 5.484375 -4.296875 Z M 4.34375 0 "/></g></g></g><g fill="#1a4238" fill-opacity="1"><g transform="translate(214.485007, 325.060965)"><g><path d="M 2.984375 0 L 0.59375 0 L 0.59375 -4.296875 L 2.984375 -4.296875 L 2.984375 -3.84375 L 1.09375 -3.84375 L 1.09375 -2.46875 L 2.875 -2.46875 L 2.875 -2.03125 L 1.09375 -2.03125 L 1.09375 -0.453125 L 2.984375 -0.453125 Z M 2.984375 0 "/></g></g></g><g fill="#1a4238" fill-opacity="1"><g transform="translate(218.628335, 325.060965)"><g><path d="M 0.59375 0 L 0.59375 -4.296875 L 1.09375 -4.296875 L 1.09375 -0.453125 L 2.984375 -0.453125 L 2.984375 0 Z M 0.59375 0 "/></g></g></g><g fill="#1a4238" fill-opacity="1"><g transform="translate(222.548229, 325.060965)"><g><path d="M 1.09375 -1.78125 L 1.09375 0 L 0.59375 0 L 0.59375 -4.296875 L 1.765625 -4.296875 C 2.296875 -4.296875 2.6875 -4.191406 2.9375 -3.984375 C 3.1875 -3.785156 3.3125 -3.484375 3.3125 -3.078125 C 3.3125 -2.515625 3.023438 -2.132812 2.453125 -1.9375 L 3.609375 0 L 3.03125 0 L 1.984375 -1.78125 Z M 1.09375 -2.21875 L 1.78125 -2.21875 C 2.125 -2.21875 2.378906 -2.285156 2.546875 -2.421875 C 2.710938 -2.566406 2.796875 -2.78125 2.796875 -3.0625 C 2.796875 -3.34375 2.710938 -3.546875 2.546875 -3.671875 C 2.378906 -3.796875 2.109375 -3.859375 1.734375 -3.859375 L 1.09375 -3.859375 Z M 1.09375 -2.21875 "/></g></g></g><g fill="#1a4238" fill-opacity="1"><g transform="translate(227.064925, 325.060965)"><g><path d="M 1.6875 -2.140625 L 2.828125 -4.296875 L 3.375 -4.296875 L 1.9375 -1.671875 L 1.9375 0 L 1.4375 0 L 1.4375 -1.640625 L 0 -4.296875 L 0.546875 -4.296875 Z M 1.6875 -2.140625 "/></g></g></g><g fill="#1a4238" fill-opacity="1"><g transform="translate(231.231772, 325.060965)"><g/></g></g><g fill="#1a4238" fill-opacity="1"><g transform="translate(233.590572, 325.060965)"><g><path d="M 3.296875 0 L 2.75 -1.359375 L 1.03125 -1.359375 L 0.5 0 L 0 0 L 1.703125 -4.3125 L 2.125 -4.3125 L 3.8125 0 Z M 2.59375 -1.8125 L 2.09375 -3.140625 C 2.03125 -3.316406 1.96875 -3.523438 1.90625 -3.765625 C 1.851562 -3.578125 1.789062 -3.367188 1.71875 -3.140625 L 1.203125 -1.8125 Z M 2.59375 -1.8125 "/></g></g></g><g fill="#1a4238" fill-opacity="1"><g transform="translate(238.195466, 325.060965)"><g><path d="M 3.9375 0 L 3.375 0 L 1.03125 -3.609375 L 1 -3.609375 C 1.03125 -3.179688 1.046875 -2.789062 1.046875 -2.4375 L 1.046875 0 L 0.59375 0 L 0.59375 -4.296875 L 1.15625 -4.296875 L 3.5 -0.703125 L 3.515625 -0.703125 C 3.515625 -0.753906 3.503906 -0.921875 3.484375 -1.203125 C 3.472656 -1.492188 3.472656 -1.703125 3.484375 -1.828125 L 3.484375 -4.296875 L 3.9375 -4.296875 Z M 3.9375 0 "/></g></g></g><g fill="#1a4238" fill-opacity="1"><g transform="translate(243.529459, 325.060965)"><g><path d="M 4.015625 -2.1875 C 4.015625 -1.476562 3.820312 -0.9375 3.4375 -0.5625 C 3.050781 -0.1875 2.5 0 1.78125 0 L 0.59375 0 L 0.59375 -4.296875 L 1.90625 -4.296875 C 2.570312 -4.296875 3.085938 -4.109375 3.453125 -3.734375 C 3.828125 -3.367188 4.015625 -2.851562 4.015625 -2.1875 Z M 3.484375 -2.171875 C 3.484375 -2.734375 3.34375 -3.15625 3.0625 -3.4375 C 2.78125 -3.71875 2.363281 -3.859375 1.8125 -3.859375 L 1.09375 -3.859375 L 1.09375 -0.4375 L 1.703125 -0.4375 C 2.296875 -0.4375 2.738281 -0.582031 3.03125 -0.875 C 3.332031 -1.164062 3.484375 -1.597656 3.484375 -2.171875 Z M 3.484375 -2.171875 "/></g></g></g><g fill="#1a4238" fill-opacity="1"><g transform="translate(248.713516, 325.060965)"><g/></g></g><g fill="#1a4238" fill-opacity="1"><g transform="translate(251.072315, 325.060965)"><g><path d="M 3.296875 0 L 2.75 -1.359375 L 1.03125 -1.359375 L 0.5 0 L 0 0 L 1.703125 -4.3125 L 2.125 -4.3125 L 3.8125 0 Z M 2.59375 -1.8125 L 2.09375 -3.140625 C 2.03125 -3.316406 1.96875 -3.523438 1.90625 -3.765625 C 1.851562 -3.578125 1.789062 -3.367188 1.71875 -3.140625 L 1.203125 -1.8125 Z M 2.59375 -1.8125 "/></g></g></g><g fill="#1a4238" fill-opacity="1"><g transform="translate(255.677209, 325.060965)"><g><path d="M 2.421875 -3.90625 C 1.953125 -3.90625 1.582031 -3.75 1.3125 -3.4375 C 1.039062 -3.125 0.90625 -2.691406 0.90625 -2.140625 C 0.90625 -1.578125 1.035156 -1.144531 1.296875 -0.84375 C 1.554688 -0.539062 1.929688 -0.390625 2.421875 -0.390625 C 2.722656 -0.390625 3.066406 -0.441406 3.453125 -0.546875 L 3.453125 -0.109375 C 3.148438 0.00390625 2.78125 0.0625 2.34375 0.0625 C 1.707031 0.0625 1.21875 -0.128906 0.875 -0.515625 C 0.53125 -0.898438 0.359375 -1.445312 0.359375 -2.15625 C 0.359375 -2.59375 0.441406 -2.976562 0.609375 -3.3125 C 0.773438 -3.644531 1.015625 -3.898438 1.328125 -4.078125 C 1.640625 -4.265625 2.007812 -4.359375 2.4375 -4.359375 C 2.882812 -4.359375 3.273438 -4.273438 3.609375 -4.109375 L 3.40625 -3.6875 C 3.082031 -3.832031 2.753906 -3.90625 2.421875 -3.90625 Z M 2.421875 -3.90625 "/></g></g></g><g fill="#1a4238" fill-opacity="1"><g transform="translate(260.270344, 325.060965)"><g><path d="M 2.984375 0 L 0.59375 0 L 0.59375 -4.296875 L 2.984375 -4.296875 L 2.984375 -3.84375 L 1.09375 -3.84375 L 1.09375 -2.46875 L 2.875 -2.46875 L 2.875 -2.03125 L 1.09375 -2.03125 L 1.09375 -0.453125 L 2.984375 -0.453125 Z M 2.984375 0 "/></g></g></g><g fill="#1a4238" fill-opacity="1"><g transform="translate(264.413672, 325.060965)"><g><path d="M 3.015625 -1.140625 C 3.015625 -0.765625 2.875 -0.46875 2.59375 -0.25 C 2.320312 -0.0390625 1.953125 0.0625 1.484375 0.0625 C 0.972656 0.0625 0.582031 -0.00390625 0.3125 -0.140625 L 0.3125 -0.625 C 0.488281 -0.550781 0.679688 -0.488281 0.890625 -0.4375 C 1.097656 -0.394531 1.300781 -0.375 1.5 -0.375 C 1.832031 -0.375 2.082031 -0.4375 2.25 -0.5625 C 2.425781 -0.695312 2.515625 -0.875 2.515625 -1.09375 C 2.515625 -1.238281 2.484375 -1.359375 2.421875 -1.453125 C 2.359375 -1.554688 2.253906 -1.644531 2.109375 -1.71875 C 1.972656 -1.800781 1.765625 -1.894531 1.484375 -2 C 1.078125 -2.144531 0.785156 -2.3125 0.609375 -2.5 C 0.441406 -2.695312 0.359375 -2.953125 0.359375 -3.265625 C 0.359375 -3.597656 0.484375 -3.863281 0.734375 -4.0625 C 0.984375 -4.257812 1.316406 -4.359375 1.734375 -4.359375 C 2.160156 -4.359375 2.550781 -4.28125 2.90625 -4.125 L 2.75 -3.6875 C 2.394531 -3.832031 2.050781 -3.90625 1.71875 -3.90625 C 1.445312 -3.90625 1.238281 -3.847656 1.09375 -3.734375 C 0.945312 -3.617188 0.875 -3.460938 0.875 -3.265625 C 0.875 -3.117188 0.898438 -3 0.953125 -2.90625 C 1.003906 -2.8125 1.09375 -2.722656 1.21875 -2.640625 C 1.351562 -2.554688 1.554688 -2.46875 1.828125 -2.375 C 2.273438 -2.21875 2.582031 -2.046875 2.75 -1.859375 C 2.925781 -1.671875 3.015625 -1.429688 3.015625 -1.140625 Z M 3.015625 -1.140625 "/></g></g></g><g fill="#1a4238" fill-opacity="1"><g transform="translate(268.5129, 325.060965)"><g><path d="M 3.015625 -1.140625 C 3.015625 -0.765625 2.875 -0.46875 2.59375 -0.25 C 2.320312 -0.0390625 1.953125 0.0625 1.484375 0.0625 C 0.972656 0.0625 0.582031 -0.00390625 0.3125 -0.140625 L 0.3125 -0.625 C 0.488281 -0.550781 0.679688 -0.488281 0.890625 -0.4375 C 1.097656 -0.394531 1.300781 -0.375 1.5 -0.375 C 1.832031 -0.375 2.082031 -0.4375 2.25 -0.5625 C 2.425781 -0.695312 2.515625 -0.875 2.515625 -1.09375 C 2.515625 -1.238281 2.484375 -1.359375 2.421875 -1.453125 C 2.359375 -1.554688 2.253906 -1.644531 2.109375 -1.71875 C 1.972656 -1.800781 1.765625 -1.894531 1.484375 -2 C 1.078125 -2.144531 0.785156 -2.3125 0.609375 -2.5 C 0.441406 -2.695312 0.359375 -2.953125 0.359375 -3.265625 C 0.359375 -3.597656 0.484375 -3.863281 0.734375 -4.0625 C 0.984375 -4.257812 1.316406 -4.359375 1.734375 -4.359375 C 2.160156 -4.359375 2.550781 -4.28125 2.90625 -4.125 L 2.75 -3.6875 C 2.394531 -3.832031 2.050781 -3.90625 1.71875 -3.90625 C 1.445312 -3.90625 1.238281 -3.847656 1.09375 -3.734375 C 0.945312 -3.617188 0.875 -3.460938 0.875 -3.265625 C 0.875 -3.117188 0.898438 -3 0.953125 -2.90625 C 1.003906 -2.8125 1.09375 -2.722656 1.21875 -2.640625 C 1.351562 -2.554688 1.554688 -2.46875 1.828125 -2.375 C 2.273438 -2.21875 2.582031 -2.046875 2.75 -1.859375 C 2.925781 -1.671875 3.015625 -1.429688 3.015625 -1.140625 Z M 3.015625 -1.140625 "/></g></g></g><g fill="#1a4238" fill-opacity="1"><g transform="translate(272.612129, 325.060965)"><g><path d="M 4.3125 -2.15625 C 4.3125 -1.46875 4.140625 -0.925781 3.796875 -0.53125 C 3.453125 -0.132812 2.96875 0.0625 2.34375 0.0625 C 1.707031 0.0625 1.21875 -0.128906 0.875 -0.515625 C 0.53125 -0.898438 0.359375 -1.445312 0.359375 -2.15625 C 0.359375 -2.851562 0.53125 -3.394531 0.875 -3.78125 C 1.226562 -4.164062 1.722656 -4.359375 2.359375 -4.359375 C 2.972656 -4.359375 3.453125 -4.160156 3.796875 -3.765625 C 4.140625 -3.378906 4.3125 -2.84375 4.3125 -2.15625 Z M 0.890625 -2.15625 C 0.890625 -1.570312 1.015625 -1.128906 1.265625 -0.828125 C 1.515625 -0.523438 1.875 -0.375 2.34375 -0.375 C 2.820312 -0.375 3.179688 -0.523438 3.421875 -0.828125 C 3.671875 -1.128906 3.796875 -1.570312 3.796875 -2.15625 C 3.796875 -2.726562 3.671875 -3.164062 3.421875 -3.46875 C 3.179688 -3.769531 2.828125 -3.921875 2.359375 -3.921875 C 1.878906 -3.921875 1.515625 -3.769531 1.265625 -3.46875 C 1.015625 -3.164062 0.890625 -2.726562 0.890625 -2.15625 Z M 0.890625 -2.15625 "/></g></g></g><g fill="#1a4238" fill-opacity="1"><g transform="translate(278.096058, 325.060965)"><g><path d="M 1.09375 -1.78125 L 1.09375 0 L 0.59375 0 L 0.59375 -4.296875 L 1.765625 -4.296875 C 2.296875 -4.296875 2.6875 -4.191406 2.9375 -3.984375 C 3.1875 -3.785156 3.3125 -3.484375 3.3125 -3.078125 C 3.3125 -2.515625 3.023438 -2.132812 2.453125 -1.9375 L 3.609375 0 L 3.03125 0 L 1.984375 -1.78125 Z M 1.09375 -2.21875 L 1.78125 -2.21875 C 2.125 -2.21875 2.378906 -2.285156 2.546875 -2.421875 C 2.710938 -2.566406 2.796875 -2.78125 2.796875 -3.0625 C 2.796875 -3.34375 2.710938 -3.546875 2.546875 -3.671875 C 2.378906 -3.796875 2.109375 -3.859375 1.734375 -3.859375 L 1.09375 -3.859375 Z M 1.09375 -2.21875 "/></g></g></g><g fill="#1a4238" fill-opacity="1"><g transform="translate(282.612755, 325.060965)"><g><path d="M 0.59375 0 L 0.59375 -4.296875 L 1.09375 -4.296875 L 1.09375 0 Z M 0.59375 0 "/></g></g></g><g fill="#1a4238" fill-opacity="1"><g transform="translate(285.086211, 325.060965)"><g><path d="M 2.984375 0 L 0.59375 0 L 0.59375 -4.296875 L 2.984375 -4.296875 L 2.984375 -3.84375 L 1.09375 -3.84375 L 1.09375 -2.46875 L 2.875 -2.46875 L 2.875 -2.03125 L 1.09375 -2.03125 L 1.09375 -0.453125 L 2.984375 -0.453125 Z M 2.984375 0 "/></g></g></g><g fill="#1a4238" fill-opacity="1"><g transform="translate(289.229538, 325.060965)"><g><path d="M 3.015625 -1.140625 C 3.015625 -0.765625 2.875 -0.46875 2.59375 -0.25 C 2.320312 -0.0390625 1.953125 0.0625 1.484375 0.0625 C 0.972656 0.0625 0.582031 -0.00390625 0.3125 -0.140625 L 0.3125 -0.625 C 0.488281 -0.550781 0.679688 -0.488281 0.890625 -0.4375 C 1.097656 -0.394531 1.300781 -0.375 1.5 -0.375 C 1.832031 -0.375 2.082031 -0.4375 2.25 -0.5625 C 2.425781 -0.695312 2.515625 -0.875 2.515625 -1.09375 C 2.515625 -1.238281 2.484375 -1.359375 2.421875 -1.453125 C 2.359375 -1.554688 2.253906 -1.644531 2.109375 -1.71875 C 1.972656 -1.800781 1.765625 -1.894531 1.484375 -2 C 1.078125 -2.144531 0.785156 -2.3125 0.609375 -2.5 C 0.441406 -2.695312 0.359375 -2.953125 0.359375 -3.265625 C 0.359375 -3.597656 0.484375 -3.863281 0.734375 -4.0625 C 0.984375 -4.257812 1.316406 -4.359375 1.734375 -4.359375 C 2.160156 -4.359375 2.550781 -4.28125 2.90625 -4.125 L 2.75 -3.6875 C 2.394531 -3.832031 2.050781 -3.90625 1.71875 -3.90625 C 1.445312 -3.90625 1.238281 -3.847656 1.09375 -3.734375 C 0.945312 -3.617188 0.875 -3.460938 0.875 -3.265625 C 0.875 -3.117188 0.898438 -3 0.953125 -2.90625 C 1.003906 -2.8125 1.09375 -2.722656 1.21875 -2.640625 C 1.351562 -2.554688 1.554688 -2.46875 1.828125 -2.375 C 2.273438 -2.21875 2.582031 -2.046875 2.75 -1.859375 C 2.925781 -1.671875 3.015625 -1.429688 3.015625 -1.140625 Z M 3.015625 -1.140625 "/></g></g></g></svg>