<svg xmlns="http://www.w3.org/2000/svg" xmlns:xlink="http://www.w3.org/1999/xlink" width="500" zoomAndPan="magnify" viewBox="0 0 375 374.999991" height="500" preserveAspectRatio="xMidYMid meet" version="1.0"><defs><g/><clipPath id="c4e6b05dfc"><path d="M 23 7.050781 L 375 7.050781 L 375 113 L 23 113 Z M 23 7.050781 " clip-rule="nonzero"/></clipPath><clipPath id="0fe966ee6e"><path d="M 23 121 L 375 121 L 375 359.550781 L 23 359.550781 Z M 23 121 " clip-rule="nonzero"/></clipPath></defs><rect x="-37.5" width="450" fill="#ffffff" y="-37.499999" height="449.999989" fill-opacity="1"/><rect x="-37.5" width="450" fill="#ffffff" y="-37.499999" height="449.999989" fill-opacity="1"/><rect x="-37.5" width="450" fill="#8ddbc7" y="-37.499999" height="449.999989" fill-opacity="1"/><g clip-path="url(#c4e6b05dfc)"><path fill="#69c2ab" d="M 32.367188 112.976562 L 366.410156 112.976562 C 367.257812 112.976562 368.089844 112.855469 368.90625 112.613281 C 369.71875 112.375 370.480469 112.019531 371.195312 111.558594 C 371.90625 111.09375 372.539062 110.539062 373.089844 109.894531 C 373.644531 109.25 374.089844 108.539062 374.4375 107.761719 C 374.78125 106.984375 375.011719 106.175781 375.121094 105.335938 C 375.230469 104.492188 375.222656 103.652344 375.089844 102.8125 C 374.957031 101.972656 374.707031 101.171875 374.339844 100.402344 C 373.976562 99.636719 373.507812 98.9375 372.941406 98.304688 L 293.984375 10.578125 L 293.84375 10.417969 C 293.5625 10.1875 293.269531 9.972656 292.964844 9.777344 C 292.433594 9.253906 291.847656 8.804688 291.207031 8.429688 C 291.144531 8.429688 291.074219 8.429688 291.003906 8.378906 C 289.863281 8.050781 288.707031 7.78125 287.539062 7.5625 C 287.46875 7.542969 287.382812 7.492188 287.292969 7.492188 L 111.484375 7.492188 C 111.070312 7.546875 110.660156 7.636719 110.261719 7.753906 C 109.5625 7.789062 108.878906 7.910156 108.214844 8.113281 C 108.160156 8.113281 108.125 8.195312 108.0625 8.21875 C 107.667969 8.4375 107.289062 8.683594 106.929688 8.957031 C 106.289062 9.320312 105.703125 9.753906 105.171875 10.261719 C 105.117188 10.320312 105.039062 10.339844 104.988281 10.402344 L 25.871094 98.304688 C 25.304688 98.9375 24.839844 99.632812 24.472656 100.398438 C 24.109375 101.164062 23.859375 101.964844 23.726562 102.804688 C 23.589844 103.640625 23.578125 104.480469 23.6875 105.320312 C 23.796875 106.160156 24.023438 106.96875 24.367188 107.746094 C 24.710938 108.519531 25.15625 109.230469 25.707031 109.878906 C 26.253906 110.523438 26.886719 111.078125 27.59375 111.542969 C 28.304688 112.007812 29.066406 112.363281 29.878906 112.605469 C 30.691406 112.851562 31.519531 112.972656 32.367188 112.976562 Z M 198.683594 34.539062 L 229.117188 95.394531 L 162.167969 95.394531 Z M 148.226562 84.46875 L 124.464844 25.070312 L 183.863281 25.070312 Z M 213.613281 25.070312 L 273.070312 25.070312 L 243.339844 84.53125 Z M 257.5625 95.394531 L 289.386719 31.753906 L 346.671875 95.394531 Z M 108.566406 32.667969 L 133.660156 95.394531 L 52.101562 95.394531 Z M 108.566406 32.667969 " fill-opacity="1" fill-rule="nonzero"/></g><g clip-path="url(#0fe966ee6e)"><path fill="#69c2ab" d="M 25.335938 135.875 L 192.355469 355.640625 C 192.460938 355.78125 192.644531 355.839844 192.761719 355.972656 C 193.34375 356.632812 194.015625 357.191406 194.773438 357.644531 C 195.054688 357.859375 195.347656 358.0625 195.652344 358.25 C 196.808594 358.824219 198.035156 359.113281 199.328125 359.113281 C 200.617188 359.113281 201.84375 358.824219 203 358.25 C 203.304688 358.0625 203.597656 357.859375 203.878906 357.644531 C 204.636719 357.191406 205.308594 356.632812 205.894531 355.972656 C 206.007812 355.839844 206.191406 355.78125 206.296875 355.640625 L 373.316406 135.875 C 373.8125 135.226562 374.207031 134.523438 374.503906 133.765625 C 374.800781 133.007812 374.988281 132.222656 375.066406 131.410156 C 375.148438 130.601562 375.113281 129.792969 374.96875 128.992188 C 374.824219 128.191406 374.570312 127.421875 374.214844 126.691406 C 373.855469 125.960938 373.402344 125.289062 372.859375 124.683594 C 372.316406 124.078125 371.699219 123.558594 371.007812 123.121094 C 370.320312 122.6875 369.585938 122.355469 368.804688 122.125 C 368.019531 121.894531 367.222656 121.777344 366.410156 121.769531 L 32.367188 121.769531 C 31.546875 121.765625 30.742188 121.875 29.953125 122.097656 C 29.164062 122.316406 28.421875 122.644531 27.722656 123.074219 C 27.023438 123.503906 26.398438 124.023438 25.847656 124.628906 C 25.292969 125.234375 24.832031 125.902344 24.46875 126.636719 C 24.101562 127.371094 23.84375 128.140625 23.695312 128.945312 C 23.542969 129.753906 23.507812 130.5625 23.582031 131.378906 C 23.660156 132.195312 23.847656 132.988281 24.144531 133.75 C 24.441406 134.515625 24.839844 135.222656 25.335938 135.875 Z M 218.726562 310.394531 L 293.058594 139.347656 L 348.6875 139.347656 Z M 273.886719 139.347656 L 208.179688 290.476562 L 208.179688 139.347656 Z M 190.597656 290.476562 L 124.890625 139.347656 L 190.597656 139.347656 Z M 105.714844 139.347656 L 180.050781 310.394531 L 50.089844 139.347656 Z M 105.714844 139.347656 " fill-opacity="1" fill-rule="nonzero"/></g><g fill="#3d3c40" fill-opacity="1"><g transform="translate(12.845689, 266.071447)"><g><path d="M 43.523438 -41.742188 C 41.742188 -35.082031 38.929688 -28.796875 35.457031 -22.886719 C 34.425781 -21.011719 38.929688 -16.976562 40.335938 -19.324219 C 44.179688 -25.984375 47.277344 -33.113281 48.871094 -40.617188 C 49.902344 -45.304688 51.027344 -50.933594 46.058594 -53.75 C 41.460938 -56.375 36.019531 -52.152344 32.644531 -49.339844 C 28.234375 -45.683594 24.484375 -41.273438 21.105469 -36.675781 C 13.976562 -26.828125 8.066406 -15.570312 4.691406 -3.941406 C 3.1875 1.03125 1.6875 6.941406 3.566406 11.914062 C 5.535156 17.445312 11.257812 20.355469 16.882812 18.386719 C 20.449219 17.164062 23.542969 14.539062 26.359375 12.101562 C 29.265625 9.660156 31.894531 7.128906 34.425781 4.316406 C 34.894531 3.753906 35.363281 3.1875 35.925781 2.625 C 35.269531 6.097656 34.894531 9.566406 34.800781 13.132812 C 34.707031 15.289062 39.679688 18.667969 39.773438 15.664062 C 40.148438 4.878906 42.960938 -5.535156 47.933594 -15.007812 C 48.964844 -16.976562 44.367188 -20.917969 43.148438 -18.574219 C 37.800781 -8.535156 30.671875 0.375 22.042969 7.785156 C 19.792969 9.660156 10.976562 17.445312 8.253906 12.945312 C 7.316406 11.351562 7.691406 8.441406 7.878906 6.660156 C 8.160156 4.410156 8.816406 2.15625 9.378906 0 C 12.101562 -9.378906 16.414062 -18.480469 21.667969 -26.640625 C 26.546875 -34.519531 32.738281 -42.773438 40.710938 -47.652344 C 41.835938 -48.402344 43.054688 -49.152344 44.367188 -49.433594 C 44.460938 -49.433594 44.554688 -49.527344 44.648438 -49.527344 C 44.554688 -48.402344 44.554688 -46.808594 44.554688 -46.621094 C 44.273438 -45.023438 43.898438 -43.335938 43.523438 -41.742188 Z M 44.835938 -50.464844 C 44.742188 -50.464844 44.742188 -50.277344 44.742188 -50.089844 C 44.648438 -50.183594 44.648438 -50.277344 44.835938 -50.464844 Z M 44.835938 -50.464844 "/></g></g></g><g fill="#3d3c40" fill-opacity="1"><g transform="translate(65.371927, 266.071447)"><g><path d="M 24.292969 -11.726562 C 18.761719 -7.410156 5.253906 -0.75 -0.375 0 C -0.1875 -0.75 0.09375 -1.5 0.375 -2.15625 C 3.753906 -3.753906 16.320312 -8.628906 10.976562 -14.164062 C 7.316406 -18.011719 2.34375 -14.539062 -0.46875 -11.539062 C -3.566406 -8.160156 -7.878906 -1.5 -4.503906 3 C -2.34375 6.003906 0.84375 5.722656 3.941406 4.691406 C 12.382812 1.6875 20.167969 -3.941406 27.578125 -8.722656 C 29.359375 -9.941406 26.265625 -13.226562 24.292969 -11.726562 Z M 24.292969 -11.726562 "/></g></g></g><g fill="#3d3c40" fill-opacity="1"><g transform="translate(90.228092, 266.071447)"><g><path d="M 52.625 -11.632812 C 47.746094 -7.691406 37.425781 -2.71875 34.894531 -2.0625 C 34.988281 -2.53125 34.988281 -3 34.894531 -3.375 C 34.707031 -5.535156 33.113281 -7.597656 31.140625 -8.441406 C 29.171875 -9.378906 27.203125 -8.816406 25.421875 -7.691406 C 24.671875 -7.316406 24.011719 -6.847656 23.355469 -6.472656 C 23.824219 -7.972656 24.292969 -9.566406 24.105469 -11.070312 C 23.636719 -14.726562 20.167969 -16.507812 17.070312 -15.101562 C 12.101562 -12.851562 7.410156 -9.941406 3.1875 -6.566406 C 3.566406 -7.503906 3.941406 -8.347656 4.410156 -9.191406 C 5.441406 -11.164062 0.84375 -15.101562 -0.46875 -12.757812 C -2.71875 -8.441406 -4.128906 -3.847656 -4.785156 1.03125 C -4.972656 2.625 -1.59375 6.003906 -0.09375 4.503906 C 3.09375 1.3125 6.472656 -1.6875 10.222656 -4.222656 C 12.195312 -5.628906 14.164062 -6.847656 16.320312 -8.066406 C 16.976562 -8.347656 17.636719 -8.910156 18.480469 -9.378906 C 18.292969 -8.628906 18.011719 -8.066406 17.917969 -7.503906 C 17.445312 -5.441406 16.976562 -3.28125 16.507812 -1.21875 C 16.039062 0.75 19.136719 4.128906 21.105469 2.71875 C 22.886719 1.5 24.578125 0.1875 26.359375 -1.03125 C 27.203125 -1.59375 28.046875 -2.34375 28.984375 -2.90625 C 29.078125 -3 29.359375 -3.09375 29.546875 -3.1875 C 29.546875 -3.09375 29.546875 -3.09375 29.546875 -3 C 29.359375 -2.0625 29.171875 -1.03125 29.453125 0 C 30.109375 2.25 32.363281 3.941406 34.707031 3.847656 C 36.957031 3.753906 39.210938 2.4375 41.085938 1.40625 C 46.152344 -1.5 50.839844 -5.160156 55.34375 -8.816406 C 57.125 -10.222656 54.5 -13.132812 52.625 -11.632812 Z M 52.625 -11.632812 "/></g></g></g><g fill="#3d3c40" fill-opacity="1"><g transform="translate(143.035718, 266.071447)"><g><path d="M 17.164062 -12.476562 C 15.195312 -11.726562 10.695312 -10.507812 6.003906 -8.347656 C 5.535156 -8.816406 5.066406 -9.285156 4.597656 -9.847656 C 3.46875 -11.257812 2.625 -14.632812 5.628906 -14.445312 C 7.035156 -14.351562 6.941406 -16.039062 6.472656 -16.882812 C 5.910156 -18.105469 4.503906 -19.324219 3.09375 -19.417969 C -1.59375 -19.792969 -2.25 -14.539062 -0.5625 -11.164062 C 0.375 -9.285156 1.96875 -7.972656 3.28125 -6.285156 C -1.875 -2.0625 -5.535156 3.1875 -0.46875 7.410156 C 4.316406 11.351562 8.816406 5.535156 9.472656 0.9375 C 9.660156 -0.46875 9.566406 -1.875 9.191406 -3.1875 C 12.101562 -5.441406 15.382812 -7.222656 18.761719 -8.535156 C 21.199219 -9.472656 19.230469 -13.320312 17.164062 -12.476562 Z M 17.164062 -12.476562 "/></g></g></g><g fill="#3d3c40" fill-opacity="1"><g transform="translate(160.950915, 266.071447)"><g/></g></g><g fill="#3d3c40" fill-opacity="1"><g transform="translate(196.312321, 266.071447)"><g><path d="M 60.691406 -45.683594 C 52.246094 -55.625 38.742188 -54.59375 27.578125 -50.464844 C 21.386719 -48.214844 15.289062 -45.117188 10.222656 -40.710938 C 6.191406 -37.238281 0.28125 -31.519531 3.753906 -25.984375 C 5.441406 -23.355469 9.378906 -23.730469 7.222656 -27.203125 C 7.222656 -27.296875 8.253906 -29.078125 8.441406 -29.359375 C 9.003906 -30.296875 9.660156 -31.140625 10.316406 -31.988281 C 11.632812 -33.675781 13.226562 -35.269531 14.914062 -36.675781 C 18.292969 -39.492188 22.136719 -41.742188 26.171875 -43.617188 C 34.332031 -47.371094 44.835938 -51.027344 53.5625 -46.996094 C 62.285156 -42.867188 61.160156 -32.363281 57.40625 -25.046875 C 53.375 -17.351562 45.871094 -11.164062 37.988281 -7.785156 C 35.925781 -6.847656 33.769531 -6.003906 31.613281 -5.628906 C 30.578125 -5.347656 29.546875 -5.253906 28.421875 -5.347656 C 27.109375 -5.441406 26.640625 -5.628906 26.921875 -7.035156 C 27.671875 -11.820312 32.175781 -16.132812 36.207031 -18.386719 C 38.554688 -19.699219 34.519531 -24.292969 32.644531 -23.261719 C 31.800781 -22.699219 30.859375 -22.136719 30.015625 -21.574219 C 31.988281 -26.828125 34.144531 -31.988281 36.488281 -37.050781 C 37.425781 -39.023438 32.738281 -42.960938 31.613281 -40.617188 C 23.542969 -23.074219 17.824219 -4.597656 14.820312 14.445312 C 14.445312 16.601562 19.230469 20.261719 19.605469 17.917969 C 20.824219 10.789062 22.324219 3.660156 24.199219 -3.375 C 25.609375 -1.875 27.578125 -0.84375 29.734375 -0.46875 C 34.800781 0.375 40.335938 -2.0625 44.648438 -4.410156 C 49.902344 -7.222656 54.6875 -10.976562 58.34375 -15.664062 C 65.191406 -24.105469 68.382812 -36.675781 60.691406 -45.683594 Z M 60.691406 -45.683594 "/></g></g></g><g fill="#3d3c40" fill-opacity="1"><g transform="translate(264.315033, 266.071447)"><g><path d="M 35.175781 -11.914062 C 31.613281 -8.722656 21.667969 -1.3125 16.039062 -0.65625 C 15.945312 -0.65625 15.945312 -0.65625 15.851562 -0.65625 C 16.132812 -2.0625 16.320312 -3.375 16.882812 -4.878906 C 17.351562 -6.285156 17.917969 -7.691406 18.105469 -9.191406 C 18.199219 -9.378906 18.199219 -9.660156 18.105469 -10.035156 C 18.105469 -10.976562 17.070312 -12.195312 15.945312 -12.945312 C 15.289062 -13.414062 14.539062 -13.695312 13.882812 -13.507812 C 13.320312 -13.414062 12.851562 -13.226562 12.289062 -13.039062 C 9.660156 -16.507812 4.878906 -17.164062 1.125 -14.445312 C -3.46875 -10.976562 -6.566406 -5.160156 -7.785156 0.375 C -8.160156 2.25 -5.535156 5.347656 -3.566406 4.597656 C 2.0625 2.34375 6.285156 -2.53125 11.257812 -5.816406 C 10.789062 -4.222656 10.507812 -2.625 11.070312 -0.84375 C 11.820312 1.78125 14.164062 4.035156 16.976562 4.410156 C 19.792969 4.691406 22.511719 3.1875 24.765625 1.875 C 29.734375 -1.125 34.144531 -4.972656 38.460938 -8.816406 C 40.148438 -10.410156 36.957031 -13.601562 35.175781 -11.914062 Z M 1.3125 -5.722656 C 1.3125 -5.722656 1.40625 -5.816406 1.40625 -5.816406 C 2.4375 -7.128906 3.566406 -8.441406 4.785156 -9.472656 C 5.628906 -10.128906 6.472656 -10.882812 7.503906 -11.164062 C 7.878906 -11.164062 8.253906 -11.257812 8.628906 -11.351562 C 8.628906 -11.257812 8.628906 -11.257812 8.722656 -11.257812 C 6.097656 -9.753906 3.753906 -7.691406 1.3125 -5.722656 Z M 1.3125 -5.722656 "/></g></g></g><g fill="#3d3c40" fill-opacity="1"><g transform="translate(300.051633, 266.071447)"><g><path d="M 17.351562 -12.289062 C 14.070312 -17.730469 9.566406 -16.789062 5.253906 -13.507812 C 4.597656 -15.570312 1.21875 -17.824219 0.46875 -15.851562 C -1.59375 -10.316406 -3.847656 -4.878906 -5.910156 0.65625 C -6.660156 2.71875 -2.15625 6.660156 -1.03125 4.222656 C 0.5625 0.75 2.71875 -2.4375 5.347656 -5.160156 C 6.472656 -6.472656 7.785156 -7.691406 9.191406 -8.722656 C 9.847656 -9.191406 12.570312 -11.257812 13.789062 -11.257812 C 14.539062 -10.507812 15.476562 -9.753906 16.414062 -9.847656 C 17.824219 -9.941406 18.011719 -11.257812 17.351562 -12.289062 Z M 17.351562 -12.289062 "/></g></g></g><g fill="#3d3c40" fill-opacity="1"><g transform="translate(322.84428, 266.071447)"><g><path d="M 21.480469 -11.445312 C 18.855469 -8.628906 9.660156 -3.753906 2.8125 -2.8125 C 2.4375 -6.285156 4.972656 -11.445312 5.816406 -13.882812 C 7.503906 -18.855469 9.191406 -23.824219 10.976562 -28.703125 C 14.632812 -38.742188 18.574219 -48.683594 22.699219 -58.53125 C 23.542969 -60.597656 18.855469 -64.535156 17.824219 -62.097656 C 14.070312 -53.09375 10.507812 -43.992188 7.128906 -34.800781 C 5.441406 -30.390625 3.941406 -25.984375 2.34375 -21.480469 C 0.9375 -17.257812 -0.84375 -12.945312 -1.78125 -8.535156 C -2.4375 -5.347656 -2.15625 -2.15625 0.09375 0.46875 C 2.15625 3 4.972656 2.53125 7.878906 1.59375 C 13.882812 -0.1875 19.980469 -4.222656 24.292969 -8.816406 C 25.890625 -10.601562 23.074219 -13.226562 21.480469 -11.445312 Z M 21.480469 -11.445312 "/></g></g></g><g fill="#3d3c40" fill-opacity="1"><g transform="translate(344.698947, 266.071447)"><g><path d="M 10.976562 -12.289062 C 10.882812 -12.664062 10.789062 -12.945312 10.695312 -13.320312 C 12.007812 -14.820312 8.535156 -18.761719 6.660156 -17.824219 C 0.75 -14.820312 -9.847656 -4.503906 -3.46875 2.625 C -0.09375 6.378906 4.316406 4.785156 7.128906 1.21875 C 10.128906 -2.625 11.445312 -7.410156 10.976562 -12.289062 Z M 4.503906 -6.003906 C 3.847656 -4.597656 3 -3.28125 1.875 -2.15625 C 1.21875 -1.40625 0.5625 -1.125 -0.1875 -0.46875 C -0.09375 -0.9375 0 -1.5 0.09375 -1.6875 C 0.28125 -2.34375 0.5625 -2.90625 0.84375 -3.566406 C 1.5 -4.878906 2.34375 -6.191406 3.28125 -7.316406 C 4.035156 -8.347656 4.878906 -9.191406 5.816406 -10.035156 C 5.535156 -8.628906 5.160156 -7.316406 4.503906 -6.003906 Z M 4.503906 -6.003906 "/></g></g></g><g fill="#3d3c40" fill-opacity="1"><g transform="translate(362.05137, 266.071447)"><g><path d="M 17.351562 -12.289062 C 14.070312 -17.730469 9.566406 -16.789062 5.253906 -13.507812 C 4.597656 -15.570312 1.21875 -17.824219 0.46875 -15.851562 C -1.59375 -10.316406 -3.847656 -4.878906 -5.910156 0.65625 C -6.660156 2.71875 -2.15625 6.660156 -1.03125 4.222656 C 0.5625 0.75 2.71875 -2.4375 5.347656 -5.160156 C 6.472656 -6.472656 7.785156 -7.691406 9.191406 -8.722656 C 9.847656 -9.191406 12.570312 -11.257812 13.789062 -11.257812 C 14.539062 -10.507812 15.476562 -9.753906 16.414062 -9.847656 C 17.824219 -9.941406 18.011719 -11.257812 17.351562 -12.289062 Z M 17.351562 -12.289062 "/></g></g></g><g fill="#1a4238" fill-opacity="1"><g transform="translate(245.859149, 369.291742)"><g><path d="M -0.03125 1.125 C -0.21875 1.125 -0.363281 1.097656 -0.46875 1.046875 L -0.46875 0.625 C -0.332031 0.664062 -0.1875 0.6875 -0.03125 0.6875 C 0.15625 0.6875 0.300781 0.625 0.40625 0.5 C 0.507812 0.382812 0.5625 0.21875 0.5625 0 L 0.5625 -4.296875 L 1.0625 -4.296875 L 1.0625 -0.046875 C 1.0625 0.328125 0.96875 0.613281 0.78125 0.8125 C 0.59375 1.019531 0.320312 1.125 -0.03125 1.125 Z M -0.03125 1.125 "/></g></g></g><g fill="#1a4238" fill-opacity="1"><g transform="translate(248.262047, 369.291742)"><g><path d="M 2.984375 0 L 0.59375 0 L 0.59375 -4.296875 L 2.984375 -4.296875 L 2.984375 -3.84375 L 1.09375 -3.84375 L 1.09375 -2.46875 L 2.875 -2.46875 L 2.875 -2.03125 L 1.09375 -2.03125 L 1.09375 -0.453125 L 2.984375 -0.453125 Z M 2.984375 0 "/></g></g></g><g fill="#1a4238" fill-opacity="1"><g transform="translate(252.405375, 369.291742)"><g><path d="M 4.34375 0 L 3.84375 0 L 2.984375 -2.875 C 2.941406 -3 2.894531 -3.15625 2.84375 -3.34375 C 2.789062 -3.539062 2.765625 -3.660156 2.765625 -3.703125 C 2.722656 -3.441406 2.65625 -3.160156 2.5625 -2.859375 L 1.71875 0 L 1.21875 0 L 0.078125 -4.296875 L 0.609375 -4.296875 L 1.28125 -1.640625 C 1.375 -1.265625 1.441406 -0.925781 1.484375 -0.625 C 1.546875 -0.988281 1.628906 -1.34375 1.734375 -1.6875 L 2.5 -4.296875 L 3.03125 -4.296875 L 3.828125 -1.65625 C 3.921875 -1.351562 4.003906 -1.007812 4.078125 -0.625 C 4.109375 -0.90625 4.175781 -1.242188 4.28125 -1.640625 L 4.953125 -4.296875 L 5.484375 -4.296875 Z M 4.34375 0 "/></g></g></g><g fill="#1a4238" fill-opacity="1"><g transform="translate(258.774218, 369.291742)"><g><path d="M 2.984375 0 L 0.59375 0 L 0.59375 -4.296875 L 2.984375 -4.296875 L 2.984375 -3.84375 L 1.09375 -3.84375 L 1.09375 -2.46875 L 2.875 -2.46875 L 2.875 -2.03125 L 1.09375 -2.03125 L 1.09375 -0.453125 L 2.984375 -0.453125 Z M 2.984375 0 "/></g></g></g><g fill="#1a4238" fill-opacity="1"><g transform="translate(262.917545, 369.291742)"><g><path d="M 0.59375 0 L 0.59375 -4.296875 L 1.09375 -4.296875 L 1.09375 -0.453125 L 2.984375 -0.453125 L 2.984375 0 Z M 0.59375 0 "/></g></g></g><g fill="#1a4238" fill-opacity="1"><g transform="translate(266.837439, 369.291742)"><g><path d="M 1.09375 -1.78125 L 1.09375 0 L 0.59375 0 L 0.59375 -4.296875 L 1.765625 -4.296875 C 2.296875 -4.296875 2.6875 -4.191406 2.9375 -3.984375 C 3.1875 -3.785156 3.3125 -3.484375 3.3125 -3.078125 C 3.3125 -2.515625 3.023438 -2.132812 2.453125 -1.9375 L 3.609375 0 L 3.03125 0 L 1.984375 -1.78125 Z M 1.09375 -2.21875 L 1.78125 -2.21875 C 2.125 -2.21875 2.378906 -2.285156 2.546875 -2.421875 C 2.710938 -2.566406 2.796875 -2.78125 2.796875 -3.0625 C 2.796875 -3.34375 2.710938 -3.546875 2.546875 -3.671875 C 2.378906 -3.796875 2.109375 -3.859375 1.734375 -3.859375 L 1.09375 -3.859375 Z M 1.09375 -2.21875 "/></g></g></g><g fill="#1a4238" fill-opacity="1"><g transform="translate(271.354136, 369.291742)"><g><path d="M 1.6875 -2.140625 L 2.828125 -4.296875 L 3.375 -4.296875 L 1.9375 -1.671875 L 1.9375 0 L 1.4375 0 L 1.4375 -1.640625 L 0 -4.296875 L 0.546875 -4.296875 Z M 1.6875 -2.140625 "/></g></g></g><g fill="#1a4238" fill-opacity="1"><g transform="translate(275.520983, 369.291742)"><g/></g></g><g fill="#1a4238" fill-opacity="1"><g transform="translate(277.879782, 369.291742)"><g><path d="M 3.296875 0 L 2.75 -1.359375 L 1.03125 -1.359375 L 0.5 0 L 0 0 L 1.703125 -4.3125 L 2.125 -4.3125 L 3.8125 0 Z M 2.59375 -1.8125 L 2.09375 -3.140625 C 2.03125 -3.316406 1.96875 -3.523438 1.90625 -3.765625 C 1.851562 -3.578125 1.789062 -3.367188 1.71875 -3.140625 L 1.203125 -1.8125 Z M 2.59375 -1.8125 "/></g></g></g><g fill="#1a4238" fill-opacity="1"><g transform="translate(282.484676, 369.291742)"><g><path d="M 3.9375 0 L 3.375 0 L 1.03125 -3.609375 L 1 -3.609375 C 1.03125 -3.179688 1.046875 -2.789062 1.046875 -2.4375 L 1.046875 0 L 0.59375 0 L 0.59375 -4.296875 L 1.15625 -4.296875 L 3.5 -0.703125 L 3.515625 -0.703125 C 3.515625 -0.753906 3.503906 -0.921875 3.484375 -1.203125 C 3.472656 -1.492188 3.472656 -1.703125 3.484375 -1.828125 L 3.484375 -4.296875 L 3.9375 -4.296875 Z M 3.9375 0 "/></g></g></g><g fill="#1a4238" fill-opacity="1"><g transform="translate(287.818669, 369.291742)"><g><path d="M 4.015625 -2.1875 C 4.015625 -1.476562 3.820312 -0.9375 3.4375 -0.5625 C 3.050781 -0.1875 2.5 0 1.78125 0 L 0.59375 0 L 0.59375 -4.296875 L 1.90625 -4.296875 C 2.570312 -4.296875 3.085938 -4.109375 3.453125 -3.734375 C 3.828125 -3.367188 4.015625 -2.851562 4.015625 -2.1875 Z M 3.484375 -2.171875 C 3.484375 -2.734375 3.34375 -3.15625 3.0625 -3.4375 C 2.78125 -3.71875 2.363281 -3.859375 1.8125 -3.859375 L 1.09375 -3.859375 L 1.09375 -0.4375 L 1.703125 -0.4375 C 2.296875 -0.4375 2.738281 -0.582031 3.03125 -0.875 C 3.332031 -1.164062 3.484375 -1.597656 3.484375 -2.171875 Z M 3.484375 -2.171875 "/></g></g></g><g fill="#1a4238" fill-opacity="1"><g transform="translate(293.002727, 369.291742)"><g/></g></g><g fill="#1a4238" fill-opacity="1"><g transform="translate(295.361526, 369.291742)"><g><path d="M 3.296875 0 L 2.75 -1.359375 L 1.03125 -1.359375 L 0.5 0 L 0 0 L 1.703125 -4.3125 L 2.125 -4.3125 L 3.8125 0 Z M 2.59375 -1.8125 L 2.09375 -3.140625 C 2.03125 -3.316406 1.96875 -3.523438 1.90625 -3.765625 C 1.851562 -3.578125 1.789062 -3.367188 1.71875 -3.140625 L 1.203125 -1.8125 Z M 2.59375 -1.8125 "/></g></g></g><g fill="#1a4238" fill-opacity="1"><g transform="translate(299.96642, 369.291742)"><g><path d="M 2.421875 -3.90625 C 1.953125 -3.90625 1.582031 -3.75 1.3125 -3.4375 C 1.039062 -3.125 0.90625 -2.691406 0.90625 -2.140625 C 0.90625 -1.578125 1.035156 -1.144531 1.296875 -0.84375 C 1.554688 -0.539062 1.929688 -0.390625 2.421875 -0.390625 C 2.722656 -0.390625 3.066406 -0.441406 3.453125 -0.546875 L 3.453125 -0.109375 C 3.148438 0.00390625 2.78125 0.0625 2.34375 0.0625 C 1.707031 0.0625 1.21875 -0.128906 0.875 -0.515625 C 0.53125 -0.898438 0.359375 -1.445312 0.359375 -2.15625 C 0.359375 -2.59375 0.441406 -2.976562 0.609375 -3.3125 C 0.773438 -3.644531 1.015625 -3.898438 1.328125 -4.078125 C 1.640625 -4.265625 2.007812 -4.359375 2.4375 -4.359375 C 2.882812 -4.359375 3.273438 -4.273438 3.609375 -4.109375 L 3.40625 -3.6875 C 3.082031 -3.832031 2.753906 -3.90625 2.421875 -3.90625 Z M 2.421875 -3.90625 "/></g></g></g><g fill="#1a4238" fill-opacity="1"><g transform="translate(304.559555, 369.291742)"><g><path d="M 2.984375 0 L 0.59375 0 L 0.59375 -4.296875 L 2.984375 -4.296875 L 2.984375 -3.84375 L 1.09375 -3.84375 L 1.09375 -2.46875 L 2.875 -2.46875 L 2.875 -2.03125 L 1.09375 -2.03125 L 1.09375 -0.453125 L 2.984375 -0.453125 Z M 2.984375 0 "/></g></g></g><g fill="#1a4238" fill-opacity="1"><g transform="translate(308.702882, 369.291742)"><g><path d="M 3.015625 -1.140625 C 3.015625 -0.765625 2.875 -0.46875 2.59375 -0.25 C 2.320312 -0.0390625 1.953125 0.0625 1.484375 0.0625 C 0.972656 0.0625 0.582031 -0.00390625 0.3125 -0.140625 L 0.3125 -0.625 C 0.488281 -0.550781 0.679688 -0.488281 0.890625 -0.4375 C 1.097656 -0.394531 1.300781 -0.375 1.5 -0.375 C 1.832031 -0.375 2.082031 -0.4375 2.25 -0.5625 C 2.425781 -0.695312 2.515625 -0.875 2.515625 -1.09375 C 2.515625 -1.238281 2.484375 -1.359375 2.421875 -1.453125 C 2.359375 -1.554688 2.253906 -1.644531 2.109375 -1.71875 C 1.972656 -1.800781 1.765625 -1.894531 1.484375 -2 C 1.078125 -2.144531 0.785156 -2.3125 0.609375 -2.5 C 0.441406 -2.695312 0.359375 -2.953125 0.359375 -3.265625 C 0.359375 -3.597656 0.484375 -3.863281 0.734375 -4.0625 C 0.984375 -4.257812 1.316406 -4.359375 1.734375 -4.359375 C 2.160156 -4.359375 2.550781 -4.28125 2.90625 -4.125 L 2.75 -3.6875 C 2.394531 -3.832031 2.050781 -3.90625 1.71875 -3.90625 C 1.445312 -3.90625 1.238281 -3.847656 1.09375 -3.734375 C 0.945312 -3.617188 0.875 -3.460938 0.875 -3.265625 C 0.875 -3.117188 0.898438 -3 0.953125 -2.90625 C 1.003906 -2.8125 1.09375 -2.722656 1.21875 -2.640625 C 1.351562 -2.554688 1.554688 -2.46875 1.828125 -2.375 C 2.273438 -2.21875 2.582031 -2.046875 2.75 -1.859375 C 2.925781 -1.671875 3.015625 -1.429688 3.015625 -1.140625 Z M 3.015625 -1.140625 "/></g></g></g><g fill="#1a4238" fill-opacity="1"><g transform="translate(312.802111, 369.291742)"><g><path d="M 3.015625 -1.140625 C 3.015625 -0.765625 2.875 -0.46875 2.59375 -0.25 C 2.320312 -0.0390625 1.953125 0.0625 1.484375 0.0625 C 0.972656 0.0625 0.582031 -0.00390625 0.3125 -0.140625 L 0.3125 -0.625 C 0.488281 -0.550781 0.679688 -0.488281 0.890625 -0.4375 C 1.097656 -0.394531 1.300781 -0.375 1.5 -0.375 C 1.832031 -0.375 2.082031 -0.4375 2.25 -0.5625 C 2.425781 -0.695312 2.515625 -0.875 2.515625 -1.09375 C 2.515625 -1.238281 2.484375 -1.359375 2.421875 -1.453125 C 2.359375 -1.554688 2.253906 -1.644531 2.109375 -1.71875 C 1.972656 -1.800781 1.765625 -1.894531 1.484375 -2 C 1.078125 -2.144531 0.785156 -2.3125 0.609375 -2.5 C 0.441406 -2.695312 0.359375 -2.953125 0.359375 -3.265625 C 0.359375 -3.597656 0.484375 -3.863281 0.734375 -4.0625 C 0.984375 -4.257812 1.316406 -4.359375 1.734375 -4.359375 C 2.160156 -4.359375 2.550781 -4.28125 2.90625 -4.125 L 2.75 -3.6875 C 2.394531 -3.832031 2.050781 -3.90625 1.71875 -3.90625 C 1.445312 -3.90625 1.238281 -3.847656 1.09375 -3.734375 C 0.945312 -3.617188 0.875 -3.460938 0.875 -3.265625 C 0.875 -3.117188 0.898438 -3 0.953125 -2.90625 C 1.003906 -2.8125 1.09375 -2.722656 1.21875 -2.640625 C 1.351562 -2.554688 1.554688 -2.46875 1.828125 -2.375 C 2.273438 -2.21875 2.582031 -2.046875 2.75 -1.859375 C 2.925781 -1.671875 3.015625 -1.429688 3.015625 -1.140625 Z M 3.015625 -1.140625 "/></g></g></g><g fill="#1a4238" fill-opacity="1"><g transform="translate(316.90134, 369.291742)"><g><path d="M 4.3125 -2.15625 C 4.3125 -1.46875 4.140625 -0.925781 3.796875 -0.53125 C 3.453125 -0.132812 2.96875 0.0625 2.34375 0.0625 C 1.707031 0.0625 1.21875 -0.128906 0.875 -0.515625 C 0.53125 -0.898438 0.359375 -1.445312 0.359375 -2.15625 C 0.359375 -2.851562 0.53125 -3.394531 0.875 -3.78125 C 1.226562 -4.164062 1.722656 -4.359375 2.359375 -4.359375 C 2.972656 -4.359375 3.453125 -4.160156 3.796875 -3.765625 C 4.140625 -3.378906 4.3125 -2.84375 4.3125 -2.15625 Z M 0.890625 -2.15625 C 0.890625 -1.570312 1.015625 -1.128906 1.265625 -0.828125 C 1.515625 -0.523438 1.875 -0.375 2.34375 -0.375 C 2.820312 -0.375 3.179688 -0.523438 3.421875 -0.828125 C 3.671875 -1.128906 3.796875 -1.570312 3.796875 -2.15625 C 3.796875 -2.726562 3.671875 -3.164062 3.421875 -3.46875 C 3.179688 -3.769531 2.828125 -3.921875 2.359375 -3.921875 C 1.878906 -3.921875 1.515625 -3.769531 1.265625 -3.46875 C 1.015625 -3.164062 0.890625 -2.726562 0.890625 -2.15625 Z M 0.890625 -2.15625 "/></g></g></g><g fill="#1a4238" fill-opacity="1"><g transform="translate(322.385269, 369.291742)"><g><path d="M 1.09375 -1.78125 L 1.09375 0 L 0.59375 0 L 0.59375 -4.296875 L 1.765625 -4.296875 C 2.296875 -4.296875 2.6875 -4.191406 2.9375 -3.984375 C 3.1875 -3.785156 3.3125 -3.484375 3.3125 -3.078125 C 3.3125 -2.515625 3.023438 -2.132812 2.453125 -1.9375 L 3.609375 0 L 3.03125 0 L 1.984375 -1.78125 Z M 1.09375 -2.21875 L 1.78125 -2.21875 C 2.125 -2.21875 2.378906 -2.285156 2.546875 -2.421875 C 2.710938 -2.566406 2.796875 -2.78125 2.796875 -3.0625 C 2.796875 -3.34375 2.710938 -3.546875 2.546875 -3.671875 C 2.378906 -3.796875 2.109375 -3.859375 1.734375 -3.859375 L 1.09375 -3.859375 Z M 1.09375 -2.21875 "/></g></g></g><g fill="#1a4238" fill-opacity="1"><g transform="translate(326.901965, 369.291742)"><g><path d="M 0.59375 0 L 0.59375 -4.296875 L 1.09375 -4.296875 L 1.09375 0 Z M 0.59375 0 "/></g></g></g><g fill="#1a4238" fill-opacity="1"><g transform="translate(329.375421, 369.291742)"><g><path d="M 2.984375 0 L 0.59375 0 L 0.59375 -4.296875 L 2.984375 -4.296875 L 2.984375 -3.84375 L 1.09375 -3.84375 L 1.09375 -2.46875 L 2.875 -2.46875 L 2.875 -2.03125 L 1.09375 -2.03125 L 1.09375 -0.453125 L 2.984375 -0.453125 Z M 2.984375 0 "/></g></g></g><g fill="#1a4238" fill-opacity="1"><g transform="translate(333.518749, 369.291742)"><g><path d="M 3.015625 -1.140625 C 3.015625 -0.765625 2.875 -0.46875 2.59375 -0.25 C 2.320312 -0.0390625 1.953125 0.0625 1.484375 0.0625 C 0.972656 0.0625 0.582031 -0.00390625 0.3125 -0.140625 L 0.3125 -0.625 C 0.488281 -0.550781 0.679688 -0.488281 0.890625 -0.4375 C 1.097656 -0.394531 1.300781 -0.375 1.5 -0.375 C 1.832031 -0.375 2.082031 -0.4375 2.25 -0.5625 C 2.425781 -0.695312 2.515625 -0.875 2.515625 -1.09375 C 2.515625 -1.238281 2.484375 -1.359375 2.421875 -1.453125 C 2.359375 -1.554688 2.253906 -1.644531 2.109375 -1.71875 C 1.972656 -1.800781 1.765625 -1.894531 1.484375 -2 C 1.078125 -2.144531 0.785156 -2.3125 0.609375 -2.5 C 0.441406 -2.695312 0.359375 -2.953125 0.359375 -3.265625 C 0.359375 -3.597656 0.484375 -3.863281 0.734375 -4.0625 C 0.984375 -4.257812 1.316406 -4.359375 1.734375 -4.359375 C 2.160156 -4.359375 2.550781 -4.28125 2.90625 -4.125 L 2.75 -3.6875 C 2.394531 -3.832031 2.050781 -3.90625 1.71875 -3.90625 C 1.445312 -3.90625 1.238281 -3.847656 1.09375 -3.734375 C 0.945312 -3.617188 0.875 -3.460938 0.875 -3.265625 C 0.875 -3.117188 0.898438 -3 0.953125 -2.90625 C 1.003906 -2.8125 1.09375 -2.722656 1.21875 -2.640625 C 1.351562 -2.554688 1.554688 -2.46875 1.828125 -2.375 C 2.273438 -2.21875 2.582031 -2.046875 2.75 -1.859375 C 2.925781 -1.671875 3.015625 -1.429688 3.015625 -1.140625 Z M 3.015625 -1.140625 "/></g></g></g></svg>