<svg xmlns="http://www.w3.org/2000/svg" xmlns:xlink="http://www.w3.org/1999/xlink" width="1640" zoomAndPan="magnify" viewBox="0 0 1230 693.000001" height="924" preserveAspectRatio="xMidYMid meet" version="1.0"><defs><clipPath id="c09d2e4115"><path d="M 0.886719 0 L 1229.113281 0 L 1229.113281 692 L 0.886719 692 Z M 0.886719 0 " clip-rule="nonzero"/></clipPath><clipPath id="e2a9568d6b"><path d="M 640.492188 0 L 1173.722656 0 L 1173.722656 692 L 640.492188 692 Z M 640.492188 0 " clip-rule="nonzero"/></clipPath><clipPath id="acb095b6bb"><path d="M 1281.511719 926.066406 L 442.652344 926.066406 L 442.652344 -181.40625 L 899.546875 -181.40625 C 1028.34375 -104.945312 1115.171875 35.527344 1115.171875 195.3125 C 1115.171875 238.214844 1108.921875 279.703125 1097.265625 318.949219 C 1057.953125 451.425781 1076.675781 603.039062 1174.429688 700.742188 C 1229.632812 755.914062 1281.511719 836.007812 1281.511719 926.066406 Z M 1281.511719 926.066406 " clip-rule="nonzero"/></clipPath><clipPath id="4e80ad0e88"><path d="M 286 0 L 1129 0 L 1129 692 L 286 692 Z M 286 0 " clip-rule="nonzero"/></clipPath><clipPath id="e9aa60e5c6"><path d="M 866.085938 -231.652344 L 1128.945312 845.128906 L 549.085938 986.683594 L 286.226562 -90.097656 Z M 866.085938 -231.652344 " clip-rule="nonzero"/></clipPath><clipPath id="02163c5eb9"><path d="M 908.851562 -242.089844 L 1171.707031 834.691406 L 356.847656 1033.609375 L 93.988281 -43.171875 Z M 908.851562 -242.089844 " clip-rule="nonzero"/></clipPath><clipPath id="741d032f66"><path d="M 1171.597656 834.242188 L 356.671875 1033.175781 L 94.035156 -42.703125 L 537.890625 -151.054688 C 681.148438 -107.324219 798.8125 8.550781 836.703125 163.777344 C 846.878906 205.457031 850.644531 247.242188 848.628906 288.136719 C 841.855469 426.15625 896 569.003906 1014.136719 640.738281 C 1080.847656 681.246094 1150.238281 746.75 1171.597656 834.242188 Z M 1171.597656 834.242188 " clip-rule="nonzero"/></clipPath><clipPath id="11194214d0"><path d="M 0.886719 0 L 985 0 L 985 692 L 0.886719 692 Z M 0.886719 0 " clip-rule="nonzero"/></clipPath><clipPath id="a006e491dc"><path d="M 532.648438 -286.71875 L 984.332031 725.472656 L 398.902344 986.71875 L -52.78125 -25.472656 Z M 532.648438 -286.71875 " clip-rule="nonzero"/></clipPath><clipPath id="f51c786078"><path d="M 532.648438 -286.71875 L 984.332031 725.472656 L 218.347656 1067.289062 L -233.335938 55.097656 Z M 532.648438 -286.71875 " clip-rule="nonzero"/></clipPath><clipPath id="ff33a8c5ab"><path d="M 984.144531 725.050781 L 218.101562 1066.894531 L -233.207031 55.550781 L 184.027344 -130.640625 C 332.804688 -113.300781 469.335938 -20.40625 534.453125 125.511719 C 551.933594 164.691406 563.132812 205.121094 568.484375 245.714844 C 586.566406 382.710938 665.453125 513.535156 794.535156 562.917969 C 867.429688 590.808594 947.441406 642.808594 984.144531 725.050781 Z M 984.144531 725.050781 " clip-rule="nonzero"/></clipPath><clipPath id="156a72b714"><path d="M 0.886719 10 L 640 10 L 640 692 L 0.886719 692 Z M 0.886719 10 " clip-rule="nonzero"/></clipPath><clipPath id="86eb229f59"><path d="M 248.292969 -124.613281 L 640.160156 753.53125 L -24.605469 1050.179688 L -416.472656 172.035156 Z M 248.292969 -124.613281 " clip-rule="nonzero"/></clipPath><clipPath id="3a0f1af468"><path d="M 248.292969 -124.613281 L 640.160156 753.53125 L -24.605469 1050.179688 L -416.472656 172.035156 Z M 248.292969 -124.613281 " clip-rule="nonzero"/></clipPath><clipPath id="45e5388ce4"><path d="M 639.992188 753.160156 L -24.824219 1049.832031 L -416.359375 172.425781 L -54.261719 10.84375 C 74.847656 25.867188 193.320312 106.449219 249.8125 233.042969 C 264.980469 267.03125 274.695312 302.109375 279.332031 337.328125 C 295.011719 456.1875 363.453125 569.679688 475.464844 612.515625 C 538.722656 636.703125 608.152344 681.808594 639.992188 753.160156 Z M 639.992188 753.160156 " clip-rule="nonzero"/></clipPath></defs><g clip-path="url(#c09d2e4115)"><path fill="#ffffff" d="M 0.886719 0 L 1229.113281 0 L 1229.113281 699.492188 L 0.886719 699.492188 Z M 0.886719 0 " fill-opacity="1" fill-rule="nonzero"/><path fill="#ffffff" d="M 0.886719 0 L 1229.113281 0 L 1229.113281 692 L 0.886719 692 Z M 0.886719 0 " fill-opacity="1" fill-rule="nonzero"/><path fill="#57a693" d="M 0.886719 0 L 1229.113281 0 L 1229.113281 692 L 0.886719 692 Z M 0.886719 0 " fill-opacity="1" fill-rule="nonzero"/></g><g clip-path="url(#e2a9568d6b)"><g clip-path="url(#acb095b6bb)"><path fill="#8dc3b6" d="M 1173.722656 0 L 640.492188 0 L 640.492188 692 L 1173.722656 692 Z M 1173.722656 0 " fill-opacity="1" fill-rule="nonzero"/></g></g><g clip-path="url(#4e80ad0e88)"><g clip-path="url(#e9aa60e5c6)"><g clip-path="url(#02163c5eb9)"><g clip-path="url(#741d032f66)"><path fill="#f8eebb" d="M 1081.550781 -194.148438 L 126.800781 38.917969 L 333.621094 886.152344 L 1288.371094 653.082031 Z M 1081.550781 -194.148438 " fill-opacity="1" fill-rule="nonzero"/></g></g></g></g><g clip-path="url(#11194214d0)"><g clip-path="url(#a006e491dc)"><g clip-path="url(#f51c786078)"><g clip-path="url(#ff33a8c5ab)"><path fill="#ecc561" d="M 820.859375 -365.910156 L -256.632812 114.917969 L 164.171875 1057.910156 L 1241.664062 577.085938 Z M 820.859375 -365.910156 " fill-opacity="1" fill-rule="nonzero"/></g></g></g></g><g clip-path="url(#156a72b714)"><g clip-path="url(#86eb229f59)"><g clip-path="url(#3a0f1af468)"><g clip-path="url(#45e5388ce4)"><path fill="#efa917" d="M 533.859375 -226.996094 L -252.601562 123.960938 L 107.019531 929.839844 L 893.480469 578.882812 Z M 533.859375 -226.996094 " fill-opacity="1" fill-rule="nonzero"/></g></g></g></g></svg>